<svg width="145" height="152" viewBox="0 0 145 152" fill="none" xmlns="http://www.w3.org/2000/svg">
<path d="M72.5461 16.2661C72.5461 11.776 68.9567 8.18398 64.47 8.18398C68.9567 8.18398 72.5461 4.59163 72.5461 0.101562M72.5472 16.2661C72.5472 11.776 76.2648 8.18398 80.6234 8.18398C76.2648 8.18398 72.5472 4.59163 72.5472 0.101562" stroke="#191919" stroke-width="1.1"/>
<circle cx="72.3902" cy="79.3016" r="46.2" fill="#FECD36"/>
<path d="M89.598 10.0144C106.469 14.2047 121.232 24.4068 131.116 38.7069C141 53.007 145.328 70.4223 143.285 87.6857C141.243 104.949 132.972 120.874 120.024 132.473C107.076 144.073 90.3409 150.549 72.9577 150.687C55.5746 150.825 38.7382 144.616 25.6072 133.225C12.4762 121.833 3.95296 106.041 1.63642 88.8127C-0.680122 71.5841 3.36925 54.1021 13.0249 39.6465C22.6805 25.191 37.2788 14.7552 54.0811 10.297" stroke="#191919" stroke-width="1.1"/>
</svg>
