<svg width="69" height="69" viewBox="0 0 69 69" fill="none" xmlns="http://www.w3.org/2000/svg">
<path d="M35.7887 51.0579C36.1192 50.7287 36.2844 50.2991 36.2844 49.7691C36.2844 49.239 36.1198 48.8088 35.7907 48.4783C35.4615 48.1479 35.0319 47.9826 34.5019 47.9826C33.9718 47.9826 33.5416 48.1472 33.2111 48.4763C32.8807 48.8055 32.7154 49.2351 32.7154 49.7651C32.7154 50.2952 32.88 50.7254 33.2091 51.0559C33.5383 51.3864 33.9679 51.5516 34.4979 51.5516C35.028 51.5516 35.4582 51.387 35.7887 51.0579ZM33.5085 39.4568H35.6896V15.2672H33.5085V39.4568ZM34.5435 68.9998C29.7248 68.9998 25.2395 68.0947 21.0876 66.2844C16.935 64.4742 13.2887 62.0007 10.1487 58.864C7.00804 55.7273 4.53158 52.0833 2.71935 47.9321C0.906448 43.7802 0 39.2919 0 34.4672C0 29.7092 0.905127 25.2352 2.71538 21.0449C4.52563 16.8547 6.99912 13.2061 10.1358 10.0992C13.2726 6.99152 16.9165 4.53158 21.0677 2.71935C25.2196 0.906448 29.7079 0 34.5326 0C39.2906 0 43.7647 0.905128 47.9549 2.71538C52.1451 4.52564 55.7937 6.9826 58.9007 10.0863C62.0083 13.1899 64.4682 16.8392 66.2805 21.034C68.0934 25.2295 68.9998 29.7036 68.9998 34.4563C68.9998 39.275 68.0947 43.7604 66.2844 47.9122C64.4742 52.0648 62.0172 55.7051 58.9136 58.8333C55.8099 61.9614 52.1606 64.4378 47.9658 66.2626C43.7703 68.0874 39.2962 68.9998 34.5435 68.9998ZM34.5495 66.8188C43.5049 66.8188 51.122 63.6794 57.4007 57.4007C63.6794 51.122 66.8188 43.4719 66.8188 34.4503C66.8188 25.4949 63.6857 17.8778 57.4195 11.5991C51.1534 5.32039 43.5135 2.18103 34.4999 2.18103C25.5114 2.18103 17.8778 5.31411 11.5991 11.5803C5.32039 17.8464 2.18103 25.4863 2.18103 34.4999C2.18103 43.4884 5.32039 51.122 11.5991 57.4007C17.8778 63.6794 25.528 66.8188 34.5495 66.8188Z" fill="#1C1B1F"/>
</svg>
