<svg width="57" height="57" viewBox="0 0 57 57" fill="none" xmlns="http://www.w3.org/2000/svg">
<path d="M26.2888 43.7328C22.5216 43.1322 19.3822 41.4124 16.8707 38.5733C14.3592 35.7342 13.1034 32.3764 13.1034 28.5C13.1034 24.1688 14.5866 20.5197 17.5529 17.5529C20.5197 14.5866 24.1688 13.1034 28.5 13.1034C32.3764 13.1034 35.7342 14.3455 38.5733 16.8297C41.4124 19.3139 43.1322 22.4397 43.7328 26.2069L41.6853 25.6336C41.0345 22.5216 39.4883 19.9555 37.0467 17.9353C34.6046 15.9152 31.7557 14.9052 28.5 14.9052C24.7328 14.9052 21.5251 16.2292 18.8772 18.8772C16.2292 21.5251 14.9052 24.7328 14.9052 28.5C14.9052 31.7759 15.9289 34.6422 17.9763 37.0991C20.0237 39.556 22.5762 41.1121 25.6336 41.7672L26.2888 43.7328ZM30.2198 56.9181C29.9332 56.9727 29.6466 57 29.3599 57H28.5C24.5575 57 20.8525 56.2523 17.385 54.7569C13.9175 53.2614 10.9013 51.2318 8.33625 48.6679C5.77125 46.1039 3.74049 43.0893 2.24397 39.624C0.747988 36.1581 0 32.4548 0 28.5139C0 24.5736 0.747716 20.8683 2.24315 17.3981C3.73858 13.9279 5.76825 10.9094 8.33216 8.3428C10.8961 5.77562 13.9107 3.74349 17.376 2.24642C20.8419 0.748807 24.5452 0 28.4861 0C32.4264 0 36.1317 0.748259 39.6019 2.24478C43.0721 3.74076 46.0906 5.77125 48.6572 8.33625C51.2244 10.9012 53.2565 13.9175 54.7536 17.385C56.2512 20.8525 57 24.5575 57 28.5V29.319C57 29.592 56.9727 29.8649 56.9181 30.1379L55.1983 29.6466V28.5C55.1983 21.0747 52.6049 14.7687 47.4181 9.5819C42.2313 4.39511 35.9253 1.80172 28.5 1.80172C21.0747 1.80172 14.7687 4.39511 9.5819 9.5819C4.39511 14.7687 1.80172 21.0747 1.80172 28.5C1.80172 35.9253 4.39511 42.2313 9.5819 47.4181C14.7687 52.6049 21.0747 55.1983 28.5 55.1983H29.6466L30.2198 56.9181ZM53.1509 55.6078L36.9353 39.3103L34.2328 47.5L28.5 28.5L47.5 34.2328L39.3103 36.9353L55.6078 53.1509L53.1509 55.6078Z" fill="#1D1D1B"/>
</svg>
