<svg xmlns="http://www.w3.org/2000/svg" width="57" height="57" fill="none" viewBox="0 0 57 57"><path fill="currentColor" d="M26.289 43.733q-5.651-.9-9.418-5.16-3.768-4.259-3.768-10.073 0-6.496 4.45-10.947t10.947-4.45q5.814 0 10.073 3.727t5.16 9.377l-2.048-.573q-.976-4.668-4.638-7.699t-8.547-3.03q-5.65 0-9.623 3.972T14.905 28.5q0 4.914 3.071 8.6 3.071 3.684 7.658 4.667zm3.93 13.185a4.6 4.6 0 0 1-.86.082H28.5q-5.914 0-11.115-2.243t-9.049-6.09-6.092-9.043Q0 34.424 0 28.514t2.243-11.116 6.09-9.055q3.845-3.851 9.043-6.097Q22.576 0 28.486 0t11.116 2.245q5.205 2.244 9.055 6.091 3.851 3.848 6.097 9.049T57 28.5v.819q0 .41-.082.819l-1.72-.491V28.5q0-11.138-7.78-18.918T28.5 1.802 9.582 9.582 1.802 28.5t7.78 18.918 18.918 7.78h1.147zm22.932-1.31L36.935 39.31l-2.702 8.19-5.733-19 19 5.733-8.19 2.702 16.298 16.216z"/></svg>