<svg xmlns="http://www.w3.org/2000/svg" width="24" height="24" fill="none" viewBox="0 0 24 24"><rect width="23" height="23" x=".5" y=".5" fill="currentColor" rx="11.5"/><rect width="23" height="23" x=".5" y=".5" stroke="currentColor" rx="11.5"/><path fill="#fff" d="M11.986 20q-.808 0-1.373-.582a1.95 1.95 0 0 1-.566-1.413q0-.831.566-1.416t1.373-.585 1.387.582.58 1.413-.58 1.416-1.387.585m.006-.845q.47 0 .802-.331t.333-.821-.329-.822a1.1 1.1 0 0 0-.814-.332q-.462 0-.786.34a1.14 1.14 0 0 0-.325.813q0 .473.325.813.323.34.794.34m-5.054-2.144q-.807 0-1.373-.582A1.95 1.95 0 0 1 5 15.016q0-.831.565-1.416.566-.585 1.373-.585.808 0 1.387.582.58.583.58 1.413 0 .832-.58 1.416-.579.585-1.387.585m10.096 0q-.808 0-1.373-.582a1.95 1.95 0 0 1-.566-1.413q0-.831.566-1.416.565-.585 1.373-.585.807 0 1.387.582.579.583.579 1.413 0 .832-.58 1.416-.579.585-1.386.585m-10.09-.844q.47 0 .803-.332.332-.33.332-.82 0-.491-.328-.823a1.1 1.1 0 0 0-.814-.332q-.462 0-.787.34a1.14 1.14 0 0 0-.325.813q0 .472.325.813.324.34.794.34m10.096 0q.47 0 .802-.332.333-.33.333-.82 0-.491-.329-.823a1.1 1.1 0 0 0-.814-.332q-.462 0-.787.34a1.14 1.14 0 0 0-.324.813q0 .472.324.813.325.34.795.34M6.938 11.034q-.807 0-1.373-.582A1.95 1.95 0 0 1 5 9.038q0-.831.565-1.416.566-.584 1.373-.584.808 0 1.387.581.58.582.58 1.414 0 .831-.58 1.416-.579.585-1.387.585m10.096 0q-.808 0-1.373-.582a1.95 1.95 0 0 1-.566-1.414q0-.831.566-1.416.565-.584 1.373-.584.807 0 1.387.581.579.582.579 1.414 0 .831-.58 1.416-.579.585-1.386.585m-10.09-.845q.47 0 .803-.331.332-.332.332-.822t-.328-.822a1.1 1.1 0 0 0-.814-.332q-.462 0-.787.34a1.14 1.14 0 0 0-.325.814q0 .472.325.813.324.34.794.34m10.096 0q.47 0 .802-.331.333-.332.333-.822t-.329-.822a1.1 1.1 0 0 0-.814-.332q-.462 0-.787.34a1.14 1.14 0 0 0-.324.814q0 .472.324.813.325.34.795.34m-5.054-2.193q-.808 0-1.373-.582a1.95 1.95 0 0 1-.566-1.413q0-.831.566-1.416T11.986 4t1.387.582.58 1.413-.58 1.416-1.387.585m.006-.845q.47 0 .802-.331t.333-.821-.329-.822a1.1 1.1 0 0 0-.814-.332q-.462 0-.786.34a1.14 1.14 0 0 0-.325.813q0 .473.325.813.323.34.794.34"/></svg>
