<svg viewBox="0 0 64 64" fill="none" xmlns="http://www.w3.org/2000/svg">
  <path d="M32 22.31C32 20.26 32.82 18.29 34.27 16.83C35.72 15.38 37.69 14.56 39.75 14.56H55.25C55.76 14.56 56.26 14.77 56.62 15.13C56.98 15.49 57.19 15.99 57.19 16.5V47.5C57.19 48.01 56.98 48.51 56.62 48.87C56.26 49.23 55.76 49.44 55.25 49.44H39.75C37.69 49.44 35.72 50.25 34.27 51.71C32.82 53.16 32 55.13 32 57.19" stroke="currentColor" stroke-width="2" stroke-linecap="round" stroke-linejoin="round"/>
  <path d="M6.81 47.5C6.81 48.01 7.02 48.51 7.38 48.87C7.74 49.23 8.24 49.44 8.75 49.44H24.25C26.31 49.44 28.28 50.25 29.73 51.71C31.18 53.16 32 55.13 32 57.19V22.31C32 20.26 31.18 18.29 29.73 16.83C28.28 15.38 26.31 14.56 24.25 14.56H8.75C8.24 14.56 7.74 14.77 7.38 15.13C7.02 15.49 6.81 15.99 6.81 16.5V47.5Z" stroke="currentColor" stroke-width="2" stroke-linecap="round" stroke-linejoin="round"/>
</svg>
