<svg width="180" height="180" viewBox="0 0 180 180" fill="none" xmlns="http://www.w3.org/2000/svg">
  <circle cx="90" cy="90" r="90" fill="white"/>
  <path d="M106.271 0L102.594 88.6949H75.939L72.2624 0H106.271ZM89.7261 136.098C84.2112 136.098 79.6768 134.493 76.1228 131.283C72.6913 127.95 70.9756 123.877 70.9756 119.062C70.9756 114.124 72.6913 109.989 76.1228 106.656C79.6768 103.323 84.2112 101.657 89.7261 101.657C95.1184 101.657 99.5302 103.323 102.962 106.656C106.516 109.989 108.293 114.124 108.293 119.062C108.293 123.877 106.516 127.95 102.962 131.283C99.5302 134.493 95.1184 136.098 89.7261 136.098Z" fill="#FECD36"/>
</svg>
