<svg xmlns="http://www.w3.org/2000/svg" width="84" height="64" fill="none" viewBox="0 0 84 64"><path fill="currentColor" d="M33.92 36.077q-3.485-3.519-3.485-8.596 0-5.076 3.512-8.57 3.512-3.493 8.578-3.493 5.064 0 8.55 3.52t3.486 8.596-3.513 8.57q-3.51 3.495-8.577 3.494-5.064 0-8.55-3.52m8.615 18.939q-13.76 0-25.16-7.487Q5.977 40.042 0 27.508 5.976 14.974 17.364 7.487T42.498 0q13.28 0 24.292 6.932T84 25.622h-2.767Q75.478 14.974 65.116 8.707T42.498 2.44q-12.864 0-23.531 6.766Q8.3 15.971 2.657 27.508 8.3 39.043 18.966 45.809t23.531 6.766q1.937 0 3.91-.166a33 33 0 0 0 4.058-.61v2.44q-2.01.396-3.984.587a41 41 0 0 1-3.947.19m-.037-12.756q2.412 0 4.693-.776t4.05-2.108a29.5 29.5 0 0 1 2.324-4.714q1.328-2.163 3.32-4.049l.222-1.552q.11-.777.11-1.553 0-6.045-4.355-10.399T42.46 12.756 32.095 17.12t-4.316 10.427q0 6.06 4.344 10.387 4.343 4.326 10.375 4.326M62.53 64q-1.411 0-2.31-.902-.9-.9-.9-2.315V49.137q0-1.33 1.162-2.163t2.712-.832v-4.659q0-2.855 2.067-4.922 2.066-2.065 4.98-2.065 2.913 0 4.905 2.065t1.992 4.922v4.66q1.55 0 2.712.831 1.162.833 1.162 2.163v11.646q0 1.415-.899 2.315-.9.902-2.2.902zm3.43-17.858h8.412v-4.649q0-1.895-1.097-3.06-1.097-1.164-3.044-1.164-1.946 0-3.108 1.158-1.163 1.156-1.163 3.057z"/></svg>