<svg width="64" height="64" viewBox="0 0 64 64" fill="none" xmlns="http://www.w3.org/2000/svg">
<path d="M9.3848 35.6376C7.18336 31.9265 6.41241 27.5394 7.21669 23.3002C8.02097 19.0609 10.3452 15.261 13.7529 12.6141C17.1605 9.96713 21.4173 8.65524 25.7238 8.92473C30.0303 9.19422 34.0903 11.0266 37.1414 14.0777C40.1925 17.1288 42.0248 21.1887 42.2943 25.4952C42.5639 29.8017 41.252 34.0585 38.6051 37.4662C35.9582 40.8739 32.1583 43.1981 27.919 44.0024C23.6797 44.8067 19.2926 44.0357 15.5815 41.8343L15.5816 41.8341L9.46184 43.5826C9.20865 43.655 8.94072 43.6583 8.68581 43.5922C8.43091 43.5262 8.19831 43.3932 8.01211 43.207C7.82591 43.0208 7.6929 42.7882 7.62684 42.5333C7.56079 42.2784 7.56411 42.0104 7.63645 41.7572L9.38494 35.6375L9.3848 35.6376Z" stroke="currentColor" stroke-width="2" stroke-linecap="round" stroke-linejoin="round"/>
<path d="M23.6555 44.2864C24.5266 46.7591 25.9351 49.0079 27.7798 50.8708C29.6245 52.7337 31.8594 54.1643 34.3235 55.0595C36.7876 55.9548 39.4195 56.2925 42.0298 56.0482C44.6401 55.8039 47.1637 54.9838 49.4189 53.6469L49.4188 53.6467L55.5386 55.3952C55.7918 55.4675 56.0597 55.4708 56.3146 55.4048C56.5695 55.3387 56.8021 55.2057 56.9883 55.0195C57.1745 54.8333 57.3075 54.6007 57.3736 54.3458C57.4396 54.0909 57.4363 53.823 57.3639 53.5698L55.6155 47.4501L55.6156 47.4502C57.1691 44.8301 58.0212 41.8539 58.0896 38.8087C58.158 35.7634 57.4405 32.7519 56.0061 30.0648C54.5718 27.3776 52.4691 25.1055 49.9009 23.4675C47.3328 21.8296 44.3858 20.8812 41.3444 20.7139" stroke="currentColor" stroke-width="2" stroke-linecap="round" stroke-linejoin="round"/>
</svg>
