<svg width="512" height="512" fill="none" xmlns="http://www.w3.org/2000/svg"><g clip-path="url(#a)" fill-rule="evenodd" clip-rule="evenodd"><path d="M256.012 0a255.972 255.972 0 0 1 251.005 305.933 255.973 255.973 0 0 1-201.124 201.093 255.975 255.975 0 0 1-262.757-108.85A255.97 255.97 0 0 1 0 255.971 256.056 256.056 0 0 1 256.012 0Z" fill="#191919"/><path d="M419.194 260.971a.678.678 0 0 0 .664-.585v-.003l1.352-10c3.372-25.001-12.245-35.207-37.402-35.646a59.486 59.486 0 0 0-38.728 12.247 32.438 32.438 0 0 0-12.195 20.559l-.817 6.249a42.883 42.883 0 0 1-2.675 11.613 4.671 4.671 0 0 1-8.071.602 23.578 23.578 0 0 0-10.036-9.541c-1.479-.82-1.957-1.024-3.865-1.925l-16.159-7.789a15.266 15.266 0 0 1-7.734-16.511 15.458 15.458 0 0 1 10.465-11.634 15.454 15.454 0 0 1 15.259 3.468 13.644 13.644 0 0 0 3.982 26.693 13.416 13.416 0 0 0 9.541-3.874 15.365 15.365 0 0 0 .529-20.528 20.847 20.847 0 0 0-6.498-5.869 46.517 46.517 0 0 0-42.566-1.909 40.68 40.68 0 0 0-16.74 14.143 25.109 25.109 0 0 0-3.404 10.654 25.518 25.518 0 0 0 10.987 22.957c.88.497 1.459.91 2.353 1.347l18.695 8.992a15.825 15.825 0 0 1 8.045 14.975 16.023 16.023 0 0 1-4.883 10.642 20.652 20.652 0 0 1-4.567 3.111 15.824 15.824 0 0 1-6.704 1.471 16.039 16.039 0 0 1-12.744-6.199c.16-.059.918-.281 1.086-.334a15.057 15.057 0 0 0 6.256-4.059 13.198 13.198 0 0 0 3.073-6.371 13.635 13.635 0 0 0-26.141-7.338c-1.809 4.581-3.692 9.127-5.596 13.673a1.985 1.985 0 0 1-2.282 1.335 1.664 1.664 0 0 1-1.479-1.783l9.623-76.313c.139-1.078-.853-2.692-2.125-2.465h-29.804l-10.258 80.038a9.345 9.345 0 0 1-10.29 8.267 9.345 9.345 0 0 1-8.287-10.274l9.694-75.531a2.23 2.23 0 0 0-.525-1.731 2.212 2.212 0 0 0-1.639-.769h-48.761c.331-2.335.585-4.29.903-6.3l2.952-24.28a15.25 15.25 0 0 1 5.66-10.546 15.25 15.25 0 0 1 11.527-3.22 9.12 9.12 0 0 1 8.392 9.252l-.044 1.007a15.63 15.63 0 0 0-8.531 10.495 12.397 12.397 0 0 0-.363 1.994.584.584 0 0 0-.083.355c-.012.189-.012.324-.012.425a15.614 15.614 0 0 0 13.612 16.434 15.386 15.386 0 0 0 12.434-3.646 21.938 21.938 0 0 0 7.752-15.616c.591-15.917-13.871-24.519-28.068-26.37a52.95 52.95 0 0 0-28.041 3.89 51.537 51.537 0 0 0-30.66 39.451l-.942 6.675h-11.569a.656.656 0 0 0-.658.572v.006l-.399 3.18-.008.061a.671.671 0 0 0 .579.668h.02a10.504 10.504 0 0 1 7.596 3.664 10.505 10.505 0 0 1 2.459 8.067l-7.773 61.453a13.63 13.63 0 0 1-13.207 12.307h-.024a.698.698 0 0 0-.629.602l-.354 3.073-.006.089a.673.673 0 0 0 .638.676h10.756l15.337.029 36.035-.029a.68.68 0 0 0 .649-.632l.34-3.029a.337.337 0 0 0 .015-.1.678.678 0 0 0-.676-.667h-4.992a10.522 10.522 0 0 1-10.09-7.495 10.512 10.512 0 0 1-.345-4.443l9.298-73.964 5.766.039a10.388 10.388 0 0 1 7.975 3.521 10.394 10.394 0 0 1 2.489 8.355l-5.835 46.5a28.221 28.221 0 0 0 2.584 14.548 28.223 28.223 0 0 0 9.578 11.25 38.768 38.768 0 0 0 22.055 6.081 42.792 42.792 0 0 0 27.444-9.015c.054.136.469 1.036.517 1.121a13.962 13.962 0 0 0 13.146 7.93 14.237 14.237 0 0 0 11.988-7.67l3.778-8.419c3.003 12.487 18.884 16.059 29.928 16.089a57.833 57.833 0 0 0 26.719-5.488 40.44 40.44 0 0 0 22.087-24.718l1.922-4.41c-1.946 16.183 4.168 24.927 14.137 29.526 18.237 8.449 49.142 6.477 64.531-6.772a27.268 27.268 0 0 0 5.892-7.067 16.982 16.982 0 0 0 2.529-9.339 16.995 16.995 0 0 0-20.121-16.289 16.996 16.996 0 0 0-13.409 12.818 17.001 17.001 0 0 0 .562 9.659 17.004 17.004 0 0 0 5.743 7.786l-.49 1.222a14.984 14.984 0 0 1-16.664 7.85 10.149 10.149 0 0 1-9.967-12.491l3.802-30.76h53.205Zm-30.326-31.421.071-.496c.72-13.57-17.305-10.624-18.669-1.444l-.23 1.822-3.268 25.925h18.996l3.1-25.807ZM361.916 317.482a2.992 2.992 0 0 1-.759 1.969 3.264 3.264 0 0 1-2.081.523 2.671 2.671 0 0 1-1.913-.523 2.44 2.44 0 0 1-.339-1.912 2.94 2.94 0 0 1 .77-1.973 3.145 3.145 0 0 1 2.069-.519 2.564 2.564 0 0 1 1.922.507 2.523 2.523 0 0 1 .331 1.928Zm42.955 15.386a6.866 6.866 0 0 0-.903-5.086 4.81 4.81 0 0 0-4.237-1.842 6.217 6.217 0 0 0-2.737.584 6.501 6.501 0 0 0-2.095 1.518 8.049 8.049 0 0 0-1.411 2.19 9.289 9.289 0 0 0-.765 2.636h12.148Zm4 1.216a2.083 2.083 0 0 1-.618 1.391c-.33.257-.735.401-1.154.41h-14.701a14.296 14.296 0 0 0 .015 3.359c.113.92.44 1.799.956 2.569a4.895 4.895 0 0 0 2.108 1.638 8.314 8.314 0 0 0 3.359.576 14.59 14.59 0 0 0 2.852-.263 23.949 23.949 0 0 0 2.203-.576c.637-.233 1.151-.416 1.565-.59.285-.148.597-.237.917-.263a.575.575 0 0 1 .301.077c.088.067.153.16.186.266.038.16.052.325.042.49a4.933 4.933 0 0 1-.121 1.31 3.62 3.62 0 0 1-.107.425 1.143 1.143 0 0 1-.147.351 1.736 1.736 0 0 1-.26.275 5.06 5.06 0 0 1-.868.449c-.584.249-1.188.452-1.804.606-.732.206-1.596.374-2.532.545-1 .16-2.011.24-3.023.237a13.254 13.254 0 0 1-4.771-.782 7.829 7.829 0 0 1-3.253-2.294 8.472 8.472 0 0 1-1.733-3.802 19.257 19.257 0 0 1 1.169-10.522 12.534 12.534 0 0 1 2.569-3.92 11.27 11.27 0 0 1 3.654-2.45 11.87 11.87 0 0 1 4.567-.863 9.999 9.999 0 0 1 4.381.845 7.303 7.303 0 0 1 2.822 2.285 8.261 8.261 0 0 1 1.405 3.339c.223 1.363.264 2.75.121 4.124l-.1.758Zm-22.17-10.294a.593.593 0 0 1-.036.213.754.754 0 0 1-.064.242.846.846 0 0 1-.083.287 3.074 3.074 0 0 1-.124.304l-9.928 21.316a1.811 1.811 0 0 1-.321.432 1.126 1.126 0 0 1-.512.282 3.838 3.838 0 0 1-.853.133 14.11 14.11 0 0 1-2.485 0 4.167 4.167 0 0 1-.788-.165.864.864 0 0 1-.455-.277.975.975 0 0 1-.23-.405l-5.311-21.316a2.373 2.373 0 0 1-.1-.514 1.326 1.326 0 0 1-.05-.331c0-.077.012-.129.012-.201a.606.606 0 0 1 .138-.356.798.798 0 0 1 .351-.219c.204-.061.414-.097.626-.107.281-.023.591-.041.966-.041.487 0 .871.041 1.163.056.227.005.452.048.664.127.119.066.225.151.316.251a.886.886 0 0 1 .144.369l4.361 18.492.073.292.095-.292 8.239-18.492a.963.963 0 0 1 .222-.369c.118-.102.252-.187.395-.251.211-.078.433-.121.658-.127.272-.015.632-.056 1.081-.056.398 0 .702.018.942.041.202.003.401.046.587.127a.487.487 0 0 1 .307.555Zm-28.381 22.471a.529.529 0 0 1-.142.343c-.101.1-.221.179-.354.23a2.651 2.651 0 0 1-.632.165 9.653 9.653 0 0 1-2.025 0 2.496 2.496 0 0 1-.622-.165.504.504 0 0 1-.281-.23c-.056-.105-.076-.226-.056-.343l2.427-22.399a.48.48 0 0 1 .132-.319.494.494 0 0 1 .331-.269c.207-.073.42-.123.638-.151.289-.015.617-.056 1.016-.056.412 0 .752.041 1.008.056.209.028.414.079.611.151.127.05.229.146.287.269a.385.385 0 0 1 .088.319l-2.426 22.399Zm-9.375-1.647a5.588 5.588 0 0 1-.219 1.16 1.46 1.46 0 0 1-.354.611 1.87 1.87 0 0 1-.655.354c-.297.144-.61.25-.933.314-.343.076-.718.124-1.09.186-.387.047-.776.072-1.166.074-1.001.025-2-.126-2.949-.447a4.312 4.312 0 0 1-1.889-1.408 4.936 4.936 0 0 1-.904-2.364 14.101 14.101 0 0 1 0-3.386l1.429-13.086h-3.138a.592.592 0 0 1-.555-.414 2.455 2.455 0 0 1-.073-1.286 6.84 6.84 0 0 1 .12-.806c.063-.18.14-.354.231-.52a.573.573 0 0 1 .301-.298.745.745 0 0 1 .366-.095h3.123l.558-5.328c0-.118.041-.232.115-.322a.842.842 0 0 1 .352-.263c.215-.086.44-.143.67-.171a15.77 15.77 0 0 1 2.016 0c.21.022.415.079.605.171.114.068.214.157.295.263a.758.758 0 0 1 .065.322l-.564 5.328h5.733a.59.59 0 0 1 .346.095c.11.066.191.173.224.298.076.163.114.34.112.52.005.269-.01.539-.047.806-.017.45-.138.89-.354 1.286a.77.77 0 0 1-.641.414h-5.757l-1.348 12.49a6.68 6.68 0 0 0 .307 3.512 2.327 2.327 0 0 0 2.323 1.181 3.87 3.87 0 0 0 1.033-.124c.284-.054.563-.131.835-.23.209-.067.414-.146.615-.236.146-.063.301-.101.46-.112a.42.42 0 0 1 .234.065.264.264 0 0 1 .12.236c.058.154.085.317.08.481.009.244-.002.487-.032.729Zm-16.91-1.765a6.158 6.158 0 0 1-.094.729 4.46 4.46 0 0 1-.151.543 1.684 1.684 0 0 1-.192.357 3.174 3.174 0 0 1-.46.467c-.351.301-.73.567-1.133.794-.573.318-1.169.592-1.784.818-.678.25-1.375.448-2.084.593-.755.14-1.52.212-2.288.216a10.18 10.18 0 0 1-4.186-.809 6.924 6.924 0 0 1-2.887-2.33 9.412 9.412 0 0 1-1.526-3.739 19.092 19.092 0 0 1-.088-5.143c.185-1.965.664-3.89 1.42-5.713a12.622 12.622 0 0 1 2.659-3.905 9.669 9.669 0 0 1 3.539-2.226 11.394 11.394 0 0 1 4.205-.744c.683 0 1.365.066 2.036.196a9.882 9.882 0 0 1 1.807.531c.509.176.988.428 1.423.746.328.197.629.436.894.712.143.149.267.316.369.496.059.13.103.267.13.407.034.171.047.346.039.52a7.065 7.065 0 0 1-.057.741 2.94 2.94 0 0 1-.374 1.367.722.722 0 0 1-.585.38 1.248 1.248 0 0 1-.806-.405 11.062 11.062 0 0 0-1.146-.911 9.106 9.106 0 0 0-1.709-.913 6.594 6.594 0 0 0-2.452-.416 5.841 5.841 0 0 0-4.789 2.282 12.508 12.508 0 0 0-2.287 6.607 14.013 14.013 0 0 0 0 3.805c.116.964.421 1.896.897 2.743a4.419 4.419 0 0 0 1.786 1.632 5.998 5.998 0 0 0 2.583.528 6.801 6.801 0 0 0 2.556-.448 14.324 14.324 0 0 0 1.949-.98c.578-.373 1.059-.688 1.434-.983.249-.224.556-.373.886-.428a.51.51 0 0 1 .28.094.566.566 0 0 1 .186.334c.035.191.05.385.047.578 0 .266-.014.532-.047.877Zm-25.426-9.981a6.9 6.9 0 0 0-.906-5.086 4.814 4.814 0 0 0-4.245-1.842 6.206 6.206 0 0 0-2.728.584 6.063 6.063 0 0 0-2.063 1.518 7.571 7.571 0 0 0-1.449 2.19 11.017 11.017 0 0 0-.771 2.636h12.162Zm4.015 1.216a2.076 2.076 0 0 1-.638 1.391c-.324.26-.726.405-1.142.41h-14.713a13.98 13.98 0 0 0 .015 3.359c.113.924.451 1.805.983 2.569a4.79 4.79 0 0 0 2.078 1.638c1.068.42 2.21.616 3.356.576.957.007 1.913-.081 2.852-.263a20.81 20.81 0 0 0 2.211-.576c.65-.233 1.152-.416 1.565-.59.284-.147.594-.236.912-.263a.566.566 0 0 1 .301.077.481.481 0 0 1 .189.266c.047.159.069.324.065.49 0 .206-.024.454-.035.749-.05.219-.071.414-.095.561-.05.168-.08.308-.124.425a.783.783 0 0 1-.144.351 1.782 1.782 0 0 1-.26.275c-.269.184-.56.335-.865.449-.583.253-1.187.455-1.804.606-.741.206-1.6.374-2.535.545-1 .161-2.011.24-3.023.237a13.132 13.132 0 0 1-4.765-.782 8.012 8.012 0 0 1-3.268-2.294 8.612 8.612 0 0 1-1.724-3.802 17.144 17.144 0 0 1-.147-5.335 18.234 18.234 0 0 1 1.31-5.187 12.806 12.806 0 0 1 2.571-3.92 11.282 11.282 0 0 1 3.682-2.45 11.698 11.698 0 0 1 4.549-.863 10.28 10.28 0 0 1 4.41.845 7.51 7.51 0 0 1 2.789 2.285 7.746 7.746 0 0 1 1.403 3.339c.224 1.363.263 2.75.115 4.124l-.074.758Zm-28.044 12.177a.745.745 0 0 1-.127.343c-.105.101-.23.18-.366.23a2.494 2.494 0 0 1-.629.165 9.435 9.435 0 0 1-2.028 0 2.468 2.468 0 0 1-.614-.165.523.523 0 0 1-.283-.23.408.408 0 0 1-.05-.343l3.264-30.379a.961.961 0 0 1 .142-.369c.044-.083.159-.15.355-.23a2.8 2.8 0 0 1 .64-.151 12.987 12.987 0 0 1 1.992 0c.215.027.426.077.629.151a.883.883 0 0 1 .278.23c.064.112.093.24.083.369l-3.286 30.379Zm-11.705 0a.604.604 0 0 1-.127.343c-.105.1-.23.179-.366.23a2.632 2.632 0 0 1-.628.165 9.357 9.357 0 0 1-2.029 0 2.006 2.006 0 0 1-.593-.165.484.484 0 0 1-.36-.573l3.277-30.379a.819.819 0 0 1 .118-.369.8.8 0 0 1 .357-.23c.209-.079.427-.13.649-.151.331-.034.663-.047.995-.038.343-.009.686.004 1.027.038.207.027.41.078.606.151.107.065.206.142.295.23.05.116.07.243.059.369l-3.28 30.379ZM257.6 335.079a16.58 16.58 0 0 0 .009-3.436 7.374 7.374 0 0 0-.812-2.828 4.531 4.531 0 0 0-1.869-1.937 6.473 6.473 0 0 0-3.214-.714 7.472 7.472 0 0 0-3.197.655 6.752 6.752 0 0 0-2.353 1.822 10.38 10.38 0 0 0-1.562 2.81 15.662 15.662 0 0 0-.779 3.546 15.8 15.8 0 0 0-.044 3.444c.084.986.356 1.946.802 2.829a5.018 5.018 0 0 0 1.904 1.918c.998.51 2.111.754 3.23.705a7.298 7.298 0 0 0 3.161-.66 6.344 6.344 0 0 0 2.371-1.801 8.866 8.866 0 0 0 1.55-2.793c.403-1.152.672-2.346.803-3.56Zm4.348-.259a17.499 17.499 0 0 1-1.281 5.024 12.308 12.308 0 0 1-2.574 3.976 11.352 11.352 0 0 1-3.879 2.613c-1.61.641-3.331.958-5.063.933a12.312 12.312 0 0 1-4.75-.821 7.774 7.774 0 0 1-3.179-2.409 9.11 9.11 0 0 1-1.609-3.802 16.598 16.598 0 0 1-.127-5.063 18.539 18.539 0 0 1 1.249-5.051 12.103 12.103 0 0 1 2.562-3.976 11.255 11.255 0 0 1 3.873-2.589 12.961 12.961 0 0 1 5.093-.922 11.87 11.87 0 0 1 4.732.825 7.67 7.67 0 0 1 3.167 2.382 9.313 9.313 0 0 1 1.657 3.808c.28 1.676.323 3.383.129 5.072Zm-26.757 8.029a5.432 5.432 0 0 1-.098.729 3.923 3.923 0 0 1-.147.543.905.905 0 0 1-.192.357 2.244 2.244 0 0 1-.451.467 7.854 7.854 0 0 1-1.146.794c-.565.313-1.151.586-1.753.818-.687.251-1.391.449-2.108.593-.755.141-1.522.213-2.291.216a10.13 10.13 0 0 1-4.183-.809 7 7 0 0 1-2.878-2.33 9.656 9.656 0 0 1-1.544-3.739 17.906 17.906 0 0 1-.056-5.143 18.876 18.876 0 0 1 1.402-5.713 12.657 12.657 0 0 1 2.651-3.905 9.819 9.819 0 0 1 3.536-2.226 11.505 11.505 0 0 1 4.213-.744c.692.002 1.383.067 2.064.196.614.128 1.217.305 1.803.531.498.183.968.435 1.397.746.333.196.639.435.909.712.143.144.261.312.348.496.072.125.118.264.136.407.044.17.061.345.05.52a7.766 7.766 0 0 1-.074.741 2.51 2.51 0 0 1-.377 1.367.679.679 0 0 1-.553.38 1.253 1.253 0 0 1-.829-.405 10.87 10.87 0 0 0-1.152-.911 8.942 8.942 0 0 0-1.703-.913 6.567 6.567 0 0 0-2.435-.416 5.897 5.897 0 0 0-4.806 2.282 12.737 12.737 0 0 0-2.294 6.607 16.696 16.696 0 0 0 0 3.805c.114.968.428 1.902.921 2.743a4.189 4.189 0 0 0 1.768 1.632 6.079 6.079 0 0 0 2.61.528 6.76 6.76 0 0 0 2.524-.448 14.045 14.045 0 0 0 1.978-.98c.558-.373 1.033-.688 1.405-.983.252-.222.561-.37.892-.428a.474.474 0 0 1 .292.094.661.661 0 0 1 .171.334c.045.189.061.384.05.578 0 .266-.018.532-.05.877Z" fill="#fff"/></g><defs><clipPath id="a"><path fill="#fff" d="M0 0h512v511.941H0z"/></clipPath></defs></svg>