<svg width="62" height="62" viewBox="0 0 62 62" fill="none" xmlns="http://www.w3.org/2000/svg">
<path d="M18.9429 36.8286L18.3429 36.0286L16.7429 37.2286L17.3429 38.0286L18.1429 37.4286L18.9429 36.8286ZM44.6571 38.0286L45.2571 37.2286L43.6571 36.0286L43.0571 36.8286L43.8571 37.4286L44.6571 38.0286ZM31 61V60C14.9837 60 2 47.0163 2 31H1H0C0 48.1208 13.8792 62 31 62V61ZM61 31H60C60 47.0163 47.0163 60 31 60V61V62C48.1208 62 62 48.1208 62 31H61ZM31 1V2C47.0163 2 60 14.9837 60 31H61H62C62 13.8792 48.1208 0 31 0V1ZM31 1V0C13.8792 0 0 13.8792 0 31H1H2C2 14.9837 14.9837 2 31 2V1ZM16 22.4286V23.4286H20.2857V22.4286V21.4286H16V22.4286ZM41.7143 22.4286V23.4286H46V22.4286V21.4286H41.7143V22.4286ZM43.8571 37.4286L43.0571 36.8286C37.0286 44.8667 24.9714 44.8667 18.9429 36.8286L18.1429 37.4286L17.3429 38.0286C24.1714 47.1333 37.8286 47.1333 44.6571 38.0286L43.8571 37.4286Z" fill="#1D1D1B"/>
</svg>
