<svg width="190" height="149" viewBox="0 0 190 149" fill="none" xmlns="http://www.w3.org/2000/svg">
<ellipse cx="28" cy="74.5" rx="28" ry="28" transform="rotate(-180 28 74.5)" fill="#D8D8D8"/>
<path d="M146 81.5C140.477 81.5 136 85.9772 136 91.5C136 97.0228 140.477 101.5 146 101.5C151.523 101.5 156 97.0228 156 91.5C156 85.9772 151.523 81.5 146 81.5Z" stroke="currentColor" stroke-width="2"/>
<ellipse cx="11" cy="11" rx="11" ry="11" transform="matrix(-1 8.74228e-08 8.74228e-08 1 190 80.5)" fill="#FECD36"/>
<path d="M95.5 47.5C110.136 47.5 122 59.3645 122 74V101.5H69L69 47.5L95.5 47.5Z" stroke="currentColor" stroke-width="2"/>
<rect x="1" y="-1" width="53" height="25" transform="matrix(1 0 0 -1 135 71.5)" stroke="currentColor" stroke-width="2"/>
</svg>
