<svg width="181" height="143" viewBox="0 0 181 143" fill="none" xmlns="http://www.w3.org/2000/svg">
<path d="M21 90C11.0832 90 3 81.7419 3 71.5C3 61.2581 11.0832 53 21 53C30.9168 53 39 61.2581 39 71.5C39 81.7419 30.9168 90 21 90Z" stroke="currentColor" stroke-width="2"/>
<path d="M49.7178 89L69 55.0264L88.2822 89L49.7178 89Z" stroke="currentColor" stroke-width="2"/>
<path d="M98 53L133 53L133 90L98 90L98 53Z" fill="#FECD36"/>
<path d="M160 90C150.083 90 142 81.7419 142 71.5C142 61.2581 150.083 53 160 53C169.917 53 178 61.2581 178 71.5C178 81.7419 169.917 90 160 90Z" stroke="currentColor" stroke-width="2"/>
</svg>
