<svg width="81" height="80" viewBox="0 0 81 80" fill="none" xmlns="http://www.w3.org/2000/svg">
<g clip-path="url(#clip0_0_21)">
<path fill-rule="evenodd" clip-rule="evenodd" d="M40.0065 0C47.9175 0.00127805 55.6504 2.34835 62.2275 6.74438C68.8046 11.1404 73.9305 17.388 76.957 24.6971C79.9835 32.0063 80.7748 40.0487 79.2306 47.8075C77.6865 55.5664 73.8764 62.6931 68.282 68.2866C62.6877 73.88 55.5603 77.689 47.8013 79.2319C40.0422 80.7748 31.9999 79.9823 24.6912 76.9546C17.3825 73.9269 11.1358 68.8 6.74078 62.2221C2.3458 55.6443 9.44569e-06 47.9111 0 40.0001C0.00353165 29.3914 4.21984 19.2183 11.7219 11.7174C19.224 4.21651 29.3978 0.00183044 40.0065 0Z" fill="currentColor"/>
<path fill-rule="evenodd" clip-rule="evenodd" d="M65.5069 40.7815C65.5323 40.7811 65.5567 40.7718 65.5757 40.755C65.5947 40.7382 65.6072 40.7152 65.6107 40.6901V40.6896L65.822 39.1268C66.3488 35.22 63.9085 33.6252 59.9772 33.5565C57.7978 33.4647 55.6555 34.1421 53.9253 35.4704C52.9042 36.2596 52.2227 37.4086 52.0196 38.683L51.8919 39.6596C51.8377 40.281 51.697 40.8918 51.4739 41.4744C51.4183 41.5898 51.3332 41.6886 51.2273 41.7608C51.1214 41.833 50.9983 41.876 50.8704 41.8856C50.7426 41.8951 50.6145 41.8708 50.4991 41.8151C50.3836 41.7595 50.2848 41.6744 50.2126 41.5685C49.8509 40.9257 49.3045 40.4062 48.6443 40.0775C48.4132 39.9493 48.3384 39.9174 48.0404 39.7767L45.5152 38.5594C45.063 38.3166 44.7011 37.9344 44.4834 37.4696C44.2657 37.0047 44.2037 36.4821 44.3066 35.9792C44.3927 35.5581 44.5897 35.1676 44.8772 34.848C45.1647 34.5284 45.5323 34.2914 45.942 34.1614C46.3517 34.0313 46.7887 34.013 47.2079 34.1082C47.627 34.2035 48.0132 34.4089 48.3264 34.7033C47.8378 34.8525 47.419 35.1721 47.1463 35.6041C46.8736 36.0361 46.765 36.5516 46.8404 37.0569C46.9157 37.5622 47.17 38.0237 47.557 38.3572C47.9439 38.6908 48.4378 38.8744 48.9487 38.8745C49.2248 38.8767 49.4986 38.8243 49.7545 38.7204C50.0104 38.6165 50.2432 38.4632 50.4397 38.2691C50.8467 37.8388 51.0803 37.2732 51.0955 36.681C51.1107 36.0889 50.9066 35.512 50.5223 35.0612C50.2526 34.687 49.9065 34.3744 49.5069 34.1442C48.5022 33.5681 47.3743 33.2405 46.2173 33.1886C45.0602 33.1367 43.9076 33.362 42.8552 33.8457C41.7975 34.3293 40.8927 35.0938 40.2392 36.0559C39.939 36.5638 39.7572 37.1328 39.7073 37.7207C39.6545 38.4166 39.7853 39.1143 40.0866 39.7438C40.3879 40.3734 40.8492 40.9128 41.4243 41.3082C41.5618 41.3858 41.6522 41.4503 41.792 41.5186L44.7134 42.9238C45.1238 43.1539 45.4601 43.4963 45.6828 43.9108C45.9054 44.3253 46.0053 44.7947 45.9705 45.2639C45.9352 45.8947 45.6626 46.4888 45.2075 46.927C44.9924 47.1203 44.7524 47.2838 44.4938 47.4132C44.1656 47.5655 43.808 47.644 43.4462 47.643C43.0622 47.6448 42.6829 47.5584 42.3377 47.3905C41.9924 47.2225 41.6903 46.9775 41.4547 46.6742C41.4797 46.6651 41.5982 46.6303 41.6245 46.622C41.9984 46.496 42.3346 46.2779 42.6021 45.9878C42.8497 45.7058 43.0158 45.3616 43.0823 44.9922C43.1781 44.4699 43.0754 43.9306 42.7943 43.4801C42.5131 43.0295 42.0739 42.7002 41.5626 42.5566C41.0513 42.4131 40.5048 42.4657 40.0303 42.7041C39.5557 42.9426 39.1873 43.3496 38.9973 43.8455C38.7146 44.5614 38.4203 45.2718 38.1228 45.9823C38.0993 46.0547 38.0499 46.116 37.9842 46.1545C37.9184 46.1929 37.8408 46.2058 37.7661 46.1908C37.6989 46.1835 37.6372 46.1504 37.594 46.0983C37.5509 46.0463 37.5297 45.9795 37.535 45.9121L39.0389 33.9869C39.0605 33.8185 38.9056 33.5661 38.7067 33.6017H34.0494L32.4464 46.1091C32.4041 46.4935 32.211 46.8455 31.9095 47.0877C31.608 47.3299 31.2228 47.4425 30.8383 47.4009C30.4538 47.3594 30.1015 47.167 29.8587 46.866C29.6159 46.565 29.5025 46.1799 29.5433 45.7954L31.0582 33.9924C31.0643 33.944 31.0601 33.895 31.046 33.8484C31.0318 33.8017 31.008 33.7586 30.9762 33.7218C30.9443 33.6849 30.905 33.6552 30.8609 33.6345C30.8168 33.6138 30.7688 33.6026 30.7201 33.6017H23.1002C23.1519 33.2368 23.1916 32.9314 23.2414 32.6172L23.7027 28.823C23.7315 28.5029 23.8246 28.1919 23.9766 27.9087C24.1286 27.6255 24.3363 27.3759 24.5871 27.175C24.838 26.974 25.1269 26.8259 25.4364 26.7395C25.746 26.653 26.0698 26.63 26.3885 26.6718C26.75 26.7008 27.0868 26.8664 27.3305 27.1351C27.5741 27.4037 27.7062 27.755 27.6999 28.1176L27.693 28.2749C27.3622 28.4311 27.0707 28.6595 26.8399 28.9433C26.6092 29.2272 26.4451 29.5592 26.3598 29.915C26.3325 30.0172 26.3135 30.1214 26.3031 30.2267C26.2929 30.2433 26.2884 30.2627 26.2901 30.282C26.2883 30.3116 26.2883 30.3328 26.2883 30.3485C26.2507 30.9666 26.4496 31.5759 26.8446 32.0528C27.2396 32.5297 27.8012 32.8385 28.4155 32.9166C28.7613 32.9687 29.1143 32.9447 29.4499 32.8463C29.7854 32.7479 30.0955 32.5775 30.3585 32.3469C30.7164 32.0445 31.0086 31.672 31.217 31.2523C31.4253 30.8326 31.5454 30.3745 31.5698 29.9066C31.6621 27.4192 29.4022 26.075 27.1837 25.7858C25.6949 25.5869 24.1802 25.7971 22.8018 26.3937C21.5459 26.9307 20.4472 27.7782 19.6091 28.8567C18.7709 29.9351 18.2209 31.2091 18.0106 32.5587L17.8634 33.6017H16.0555C16.0304 33.6013 16.006 33.6102 15.9871 33.6268C15.9681 33.6433 15.9559 33.6662 15.9528 33.6911V33.6921L15.8904 34.1889L15.8891 34.1985C15.8891 34.2239 15.8982 34.2484 15.9148 34.2676C15.9315 34.2867 15.9544 34.2993 15.9795 34.3029H15.9827C16.2094 34.3112 16.4319 34.3663 16.6362 34.4648C16.8405 34.5634 17.0222 34.7032 17.1698 34.8754C17.3174 35.0476 17.4277 35.2486 17.4938 35.4655C17.56 35.6825 17.5804 35.9108 17.5539 36.1361L16.3393 45.7391C16.2891 46.2563 16.0516 46.7373 15.6715 47.0915C15.2914 47.4457 14.7949 47.6488 14.2754 47.6623H14.2718C14.2472 47.6647 14.2241 47.6752 14.2063 47.6923C14.1884 47.7094 14.1769 47.732 14.1735 47.7564L14.1181 48.2367L14.1172 48.2505C14.1171 48.2775 14.1274 48.3036 14.1459 48.3233C14.1645 48.3429 14.1899 48.3547 14.2169 48.3561H15.8978L18.2944 48.3608L23.9255 48.3561C23.9516 48.3551 23.9764 48.3445 23.9952 48.3263C24.0139 48.308 24.0252 48.2835 24.027 48.2574L24.0801 47.7841C24.0817 47.7791 24.0825 47.7738 24.0823 47.7684C24.082 47.7406 24.0708 47.7141 24.051 47.6946C24.0312 47.6751 24.0045 47.6641 23.9767 47.6642H23.1966C22.9618 47.6646 22.7296 47.6148 22.5157 47.5179C22.3018 47.421 22.1112 47.2794 21.9567 47.1026C21.8021 46.9258 21.6873 46.718 21.6199 46.493C21.5525 46.2681 21.5341 46.0314 21.566 45.7987L23.019 34.2406L23.92 34.2466C24.1552 34.2426 24.3885 34.2897 24.6036 34.3847C24.8188 34.4797 25.0108 34.6203 25.1663 34.7968C25.3218 34.9733 25.4371 35.1815 25.5043 35.4069C25.5715 35.6323 25.5889 35.8696 25.5553 36.1024L24.6433 43.3689C24.5738 44.1491 24.7131 44.9338 25.0471 45.6423C25.3811 46.3508 25.8978 46.9575 26.5439 47.4003C27.571 48.0565 28.7721 48.3877 29.9904 48.3506C31.54 48.3923 33.0561 47.8943 34.2791 46.9418C34.2874 46.963 34.3524 47.1037 34.3599 47.1171C34.5438 47.5017 34.8363 47.8241 35.2014 48.0443C35.5665 48.2645 35.9881 48.3729 36.4141 48.3561C36.804 48.3383 37.1824 48.2181 37.5112 48.0077C37.8401 47.7974 38.1078 47.5042 38.2874 47.1576L38.8779 45.8421C39.3471 47.7934 41.8289 48.3515 43.5547 48.3561C44.9949 48.4073 46.4265 48.1133 47.7299 47.4986C48.5455 47.1351 49.2747 46.603 49.8697 45.9372C50.4646 45.2714 50.9117 44.4872 51.1814 43.636L51.4818 42.9468C51.1777 45.4758 52.1331 46.8422 53.691 47.5609C56.5409 48.8812 61.3704 48.573 63.7752 46.5026C64.1424 46.1893 64.4538 45.8158 64.6959 45.3982C64.9663 44.9603 65.1036 44.4534 65.0911 43.9389C65.0786 43.4244 64.9169 42.9247 64.6257 42.5004C64.3344 42.0762 63.9262 41.7456 63.4506 41.5491C62.975 41.3526 62.4525 41.2985 61.9468 41.3934C61.441 41.4883 60.9737 41.7281 60.6017 42.0837C60.2297 42.4393 59.969 42.8954 59.8514 43.3964C59.7338 43.8974 59.7644 44.4218 59.9393 44.9057C60.1142 45.3897 60.426 45.8124 60.8367 46.1224L60.76 46.3135C60.5246 46.7787 60.1406 47.1521 59.6688 47.3743C59.1971 47.5965 58.6647 47.6549 58.156 47.5401C57.9154 47.5424 57.6774 47.4898 57.4601 47.3865C57.2428 47.2831 57.0519 47.1317 56.9018 46.9436C56.7517 46.7555 56.6464 46.5357 56.5939 46.3009C56.5413 46.0661 56.5429 45.8224 56.5986 45.5883L57.1927 40.7815H65.5069ZM60.7679 35.8712L60.779 35.7938C60.8916 33.6732 58.0747 34.1336 57.8616 35.5682L57.8256 35.8529L57.315 39.9041H60.2835L60.7679 35.8712Z" fill="var(--logo-mark)"/>
<path fill-rule="evenodd" clip-rule="evenodd" d="M56.5557 49.6123C56.5548 49.7259 56.5127 49.8353 56.4371 49.92C56.3411 49.9832 56.2264 50.0119 56.1119 50.0016C56.0055 50.0138 55.8985 49.9846 55.813 49.92C55.7841 49.8765 55.7645 49.8275 55.7554 49.7761C55.7462 49.7246 55.7478 49.6719 55.7599 49.6211C55.7604 49.507 55.8033 49.3971 55.8803 49.3129C55.9753 49.249 56.0897 49.2203 56.2036 49.2318C56.2565 49.2243 56.3103 49.2274 56.3619 49.241C56.4135 49.2546 56.4618 49.2784 56.504 49.311C56.5322 49.3553 56.5513 49.4048 56.5602 49.4565C56.569 49.5082 56.5675 49.5612 56.5557 49.6123ZM63.2682 52.0166C63.3264 51.7434 63.2758 51.4583 63.1271 51.2218C63.0498 51.1221 62.9486 51.0434 62.8329 50.9931C62.7172 50.9428 62.5907 50.9225 62.465 50.9339C62.3174 50.9315 62.1711 50.9627 62.0373 51.0253C61.9134 51.0816 61.8021 51.1622 61.7099 51.2624C61.6183 51.3638 61.5439 51.4794 61.4894 51.6047C61.4294 51.7353 61.3891 51.8742 61.3699 52.0166H63.2682ZM63.8932 52.2067C63.8897 52.2887 63.8552 52.3664 63.7968 52.424C63.7451 52.4642 63.6818 52.4866 63.6164 52.4881H61.3191C61.2993 52.6626 61.3 52.8387 61.3214 53.0131C61.339 53.1567 61.3902 53.2942 61.4709 53.4144C61.5548 53.5286 61.6689 53.6172 61.8003 53.6704C61.9672 53.7363 62.1459 53.767 62.3252 53.7604C62.4747 53.7614 62.624 53.7476 62.7709 53.7194C62.9024 53.6903 63.0153 53.6616 63.115 53.6293C63.2146 53.5929 63.2949 53.5643 63.3596 53.5371C63.4041 53.5139 63.4529 53.5 63.503 53.496C63.5195 53.4957 63.5357 53.4998 63.55 53.508C63.5638 53.5186 63.5739 53.5331 63.5791 53.5496C63.585 53.5747 63.5872 53.6004 63.5856 53.6261C63.5872 53.6652 63.5858 53.7044 63.5814 53.7432C63.5781 53.7727 63.5731 53.802 63.5666 53.831C63.5624 53.8534 63.5569 53.8756 63.55 53.8974C63.5455 53.9168 63.5377 53.9353 63.527 53.9522C63.515 53.968 63.5014 53.9824 63.4863 53.9951C63.4435 54.0228 63.3981 54.0464 63.3507 54.0654C63.2594 54.1043 63.1651 54.1359 63.0688 54.1599C62.9544 54.1921 62.8193 54.2185 62.6731 54.2452C62.5169 54.2702 62.3589 54.2826 62.2007 54.2822C61.9468 54.2875 61.6941 54.2461 61.4552 54.1599C61.2576 54.0863 61.0825 53.9628 60.9468 53.8015C60.8083 53.6292 60.7152 53.4249 60.676 53.2073C60.5821 52.653 60.6454 52.0834 60.8588 51.5632C60.9528 51.3355 61.089 51.1277 61.2601 50.9505C61.4235 50.7866 61.6175 50.6565 61.8312 50.5677C62.0579 50.4762 62.3004 50.4304 62.5448 50.4329C62.78 50.4248 63.0141 50.4699 63.2295 50.5649C63.4042 50.6449 63.5559 50.7677 63.6705 50.9219C63.7813 51.0775 63.8563 51.2557 63.89 51.4437C63.9249 51.6568 63.9312 51.8734 63.9089 52.0881L63.8932 52.2067ZM60.4288 50.5981C60.429 50.6094 60.4271 50.6207 60.4232 50.6313C60.422 50.6444 60.4186 50.6572 60.4131 50.6691C60.4116 50.6847 60.4071 50.6999 60.4002 50.7139C60.3946 50.7301 60.3881 50.7459 60.3808 50.7614L58.8294 54.0925C58.8161 54.1173 58.7992 54.1401 58.7792 54.1599C58.757 54.1815 58.7294 54.1967 58.6993 54.2041C58.6558 54.216 58.6111 54.223 58.566 54.2249C58.5172 54.2295 58.4516 54.2332 58.3714 54.2332C58.2962 54.2332 58.2306 54.2295 58.1776 54.2249C58.1358 54.2203 58.0946 54.2116 58.0545 54.1991C58.0268 54.1926 58.0019 54.1774 57.9834 54.1558C57.9665 54.1379 57.9541 54.1162 57.9474 54.0925L57.1176 50.7614C57.1093 50.7353 57.104 50.7084 57.1019 50.6811C57.0971 50.6643 57.0945 50.6469 57.094 50.6294C57.094 50.6174 57.0959 50.6092 57.0959 50.5981C57.097 50.5776 57.1046 50.5581 57.1176 50.5423C57.1325 50.5263 57.1514 50.5145 57.1724 50.5082C57.2042 50.4986 57.237 50.493 57.2702 50.4915C57.314 50.4878 57.3625 50.4851 57.4211 50.4851C57.4972 50.4851 57.5572 50.4915 57.6028 50.4939C57.6383 50.4946 57.6734 50.5013 57.7067 50.5137C57.7252 50.524 57.7418 50.5372 57.756 50.5529C57.7678 50.5701 57.7755 50.5899 57.7785 50.6106L58.46 53.5002L58.4714 53.5459L58.4863 53.5002L59.7737 50.6106C59.7808 50.589 59.7926 50.5693 59.8084 50.5529C59.8269 50.5369 59.8478 50.5236 59.8702 50.5137C59.9032 50.5015 59.9379 50.4948 59.973 50.4939C60.0155 50.4915 60.0718 50.4851 60.1419 50.4851C60.2041 50.4851 60.2517 50.4878 60.2891 50.4915C60.3207 50.492 60.3518 50.4987 60.3808 50.5113C60.3978 50.5177 60.4121 50.5299 60.4209 50.5458C60.4297 50.5617 60.4325 50.5802 60.4288 50.5981ZM55.9938 54.1095C55.9931 54.1295 55.9852 54.1485 55.9716 54.1631C55.9558 54.1788 55.937 54.1911 55.9162 54.1991C55.8845 54.2117 55.8514 54.2203 55.8175 54.2249C55.7124 54.236 55.6063 54.236 55.5011 54.2249C55.4677 54.2205 55.4351 54.2118 55.4039 54.1991C55.3853 54.1929 55.3696 54.1801 55.36 54.1631C55.3512 54.1467 55.3481 54.1279 55.3512 54.1095L55.7305 50.6092C55.7309 50.5906 55.7382 50.5728 55.7511 50.5594C55.756 50.5489 55.7633 50.5397 55.7722 50.5325C55.7812 50.5252 55.7916 50.52 55.8028 50.5174C55.8351 50.506 55.8685 50.4981 55.9025 50.4939C55.9476 50.4915 55.9989 50.4851 56.0612 50.4851C56.1257 50.4851 56.1788 50.4915 56.2189 50.4939C56.2515 50.4982 56.2835 50.5061 56.3144 50.5174C56.3341 50.5252 56.3501 50.5402 56.3592 50.5594C56.365 50.5662 56.3692 50.5742 56.3716 50.5828C56.374 50.5914 56.3744 50.6004 56.3729 50.6092L55.9938 54.1095ZM54.5287 53.8522C54.5237 53.9136 54.5123 53.9744 54.4946 54.0335C54.4842 54.0693 54.4652 54.1021 54.4393 54.1289C54.4092 54.154 54.3743 54.1728 54.3368 54.1843C54.2905 54.2067 54.2415 54.2232 54.191 54.2332C54.1374 54.2452 54.0789 54.2526 54.0208 54.2623C53.9603 54.2697 53.8995 54.2736 53.8385 54.2739C53.682 54.2778 53.526 54.2542 53.3777 54.2041C53.2608 54.1596 53.1585 54.0834 53.0825 53.9841C53.004 53.8753 52.9554 53.748 52.9413 53.6146C52.9199 53.4389 52.9199 53.2612 52.9413 53.0855L53.1645 51.0405H52.6742C52.6548 51.0403 52.6359 51.0339 52.6203 51.0223C52.6048 51.0107 52.5933 50.9944 52.5875 50.9759C52.5658 50.9111 52.5619 50.8417 52.576 50.7748C52.5798 50.7325 52.5861 50.6905 52.5949 50.6489C52.6046 50.6209 52.6166 50.5937 52.6309 50.5677C52.6401 50.5467 52.6569 50.53 52.6779 50.5211C52.6954 50.5113 52.7151 50.5062 52.7351 50.5063H53.2231L53.3103 49.6736C53.3104 49.6553 53.3167 49.6375 53.3284 49.6234C53.3427 49.6051 53.3617 49.5909 53.3833 49.5823C53.4168 49.5688 53.452 49.5599 53.488 49.5556C53.5929 49.5489 53.6981 49.5489 53.803 49.5556C53.8359 49.559 53.8679 49.568 53.8976 49.5823C53.9155 49.5929 53.9311 49.6068 53.9437 49.6234C53.9507 49.6392 53.9542 49.6563 53.9539 49.6736L53.8657 50.5063H54.7617C54.7807 50.5056 54.7996 50.5107 54.8156 50.5211C54.8329 50.5314 54.8455 50.5482 54.8507 50.5677C54.8625 50.5931 54.8684 50.6209 54.8682 50.6489C54.869 50.691 54.8666 50.7331 54.8608 50.7748C54.8581 50.8452 54.8392 50.914 54.8055 50.9759C54.796 50.9945 54.7817 51.0102 54.7641 51.0216C54.7465 51.0329 54.7263 51.0394 54.7054 51.0405H53.8058L53.595 52.9923C53.5616 53.1763 53.5781 53.3658 53.643 53.5413C53.6782 53.6047 53.7316 53.6562 53.7963 53.6891C53.861 53.722 53.934 53.7347 54.006 53.7258C54.0605 53.7266 54.1148 53.72 54.1675 53.7064C54.2119 53.6978 54.2555 53.6858 54.298 53.6704C54.3306 53.6599 54.3627 53.6476 54.394 53.6335C54.4168 53.6236 54.4411 53.6177 54.466 53.616C54.4788 53.6157 54.4916 53.6193 54.5025 53.6261C54.5085 53.6302 54.5134 53.6356 54.5167 53.6421C54.52 53.6486 54.5216 53.6558 54.5213 53.663C54.5303 53.6871 54.5346 53.7126 54.5338 53.7382C54.5352 53.7763 54.5335 53.8144 54.5287 53.8522ZM51.8863 53.5763C51.8837 53.6146 51.8788 53.6526 51.8716 53.6903C51.8655 53.719 51.8577 53.7473 51.848 53.7751C51.8403 53.7948 51.8302 53.8136 51.818 53.831C51.7966 53.8577 51.7725 53.8821 51.7461 53.9039C51.6913 53.951 51.632 53.9925 51.569 54.0279C51.4795 54.0776 51.3864 54.1204 51.2903 54.1558C51.1843 54.1949 51.0754 54.2258 50.9646 54.2484C50.8467 54.2703 50.727 54.2816 50.6071 54.2822C50.3826 54.2867 50.1596 54.2437 49.9529 54.1558C49.7722 54.0778 49.6163 53.9519 49.5018 53.7917C49.381 53.6165 49.2996 53.4171 49.2633 53.2073C49.2225 52.9413 49.2179 52.6709 49.2495 52.4037C49.2785 52.0967 49.3533 51.7958 49.4714 51.511C49.5703 51.2832 49.7113 51.0762 49.887 50.9008C50.0437 50.7458 50.2325 50.6271 50.4401 50.5529C50.6498 50.4731 50.8727 50.4336 51.0971 50.4366C51.2039 50.4366 51.3104 50.4469 51.4153 50.4672C51.5118 50.4858 51.6064 50.5136 51.6976 50.5502C51.7772 50.5778 51.8521 50.6171 51.92 50.6668C51.9713 50.6976 52.0183 50.735 52.0598 50.778C52.0821 50.8014 52.1015 50.8274 52.1174 50.8555C52.1266 50.8759 52.1334 50.8972 52.1377 50.9192C52.143 50.9459 52.145 50.9732 52.1438 51.0004C52.1428 51.0391 52.1399 51.0777 52.135 51.1162C52.1332 51.1911 52.1131 51.2644 52.0764 51.3298C52.0675 51.3467 52.0544 51.361 52.0384 51.3714C52.0224 51.3818 52.0041 51.3879 51.985 51.3892C51.9366 51.3846 51.8917 51.362 51.8591 51.326C51.8026 51.2746 51.7428 51.227 51.6801 51.1835C51.5964 51.1266 51.5068 51.0788 51.413 51.041C51.2905 50.9951 51.1604 50.973 51.0297 50.9759C50.8857 50.9721 50.7428 51.0025 50.6128 51.0645C50.4828 51.1265 50.3692 51.2183 50.2814 51.3325C50.0665 51.6357 49.9425 51.9938 49.9239 52.365C49.897 52.5623 49.897 52.7623 49.9239 52.9596C49.9421 53.1103 49.9898 53.2559 50.0642 53.3882C50.1316 53.4975 50.2283 53.5858 50.3432 53.6432C50.47 53.7003 50.6079 53.7285 50.7469 53.7258C50.8833 53.7282 51.0189 53.7045 51.1464 53.6557C51.2516 53.6125 51.3534 53.5613 51.4509 53.5026C51.5413 53.4444 51.6165 53.395 51.675 53.3489C51.7139 53.3139 51.7619 53.2907 51.8135 53.2821C51.8292 53.2826 51.8444 53.2877 51.8572 53.2968C51.8726 53.3103 51.8829 53.3287 51.8863 53.3489C51.8917 53.3788 51.8941 53.4091 51.8937 53.4394C51.8937 53.4808 51.8914 53.5224 51.8863 53.5763ZM47.913 52.0166C47.9705 51.7433 47.9197 51.4584 47.7714 51.2218C47.6938 51.122 47.5924 51.0434 47.4765 50.9931C47.3606 50.9428 47.2339 50.9225 47.1081 50.9339C46.9609 50.9316 46.8151 50.9629 46.6818 51.0253C46.5587 51.0805 46.4488 51.1614 46.3594 51.2624C46.2646 51.3625 46.188 51.4783 46.1329 51.6047C46.0758 51.7364 46.0353 51.8748 46.0125 52.0166H47.913ZM48.5404 52.2067C48.5361 52.2892 48.5004 52.3669 48.4408 52.424C48.3901 52.4647 48.3273 52.4872 48.2623 52.4881H45.9631C45.9427 52.6625 45.9435 52.8388 45.9654 53.0131C45.9832 53.1573 46.0359 53.2951 46.119 53.4144C46.2011 53.5286 46.3137 53.6173 46.4438 53.6704C46.6106 53.7361 46.7891 53.7667 46.9683 53.7604C47.1178 53.7615 47.2671 53.7478 47.4139 53.7194C47.5306 53.6957 47.646 53.6656 47.7594 53.6293C47.861 53.5929 47.9394 53.5643 48.0039 53.5371C48.0483 53.5141 48.0967 53.5002 48.1465 53.496C48.163 53.4956 48.1793 53.4998 48.1935 53.508C48.2079 53.5181 48.2183 53.5328 48.2231 53.5496C48.2304 53.5744 48.2338 53.6003 48.2332 53.6261C48.2332 53.6584 48.2295 53.6971 48.2277 53.7432C48.2199 53.7774 48.2166 53.8079 48.2129 53.831C48.2051 53.8572 48.2004 53.879 48.1935 53.8974C48.1906 53.9172 48.1829 53.936 48.1709 53.9522C48.159 53.968 48.1454 53.9824 48.1303 53.9951C48.0883 54.0239 48.0429 54.0475 47.9952 54.0654C47.9041 54.1048 47.8098 54.1364 47.7133 54.1599C47.5976 54.1921 47.4633 54.2185 47.3171 54.2452C47.1609 54.2703 47.0029 54.2826 46.8447 54.2822C46.5911 54.2878 46.3386 54.2463 46.1001 54.1599C45.9024 54.0855 45.7267 53.9622 45.5895 53.8015C45.4523 53.6285 45.3597 53.4245 45.32 53.2073C45.269 52.9323 45.2612 52.651 45.297 52.3736C45.3251 52.0949 45.3941 51.8218 45.5018 51.5632C45.5969 51.336 45.7331 51.1283 45.9036 50.9505C46.0682 50.7862 46.2637 50.6561 46.4789 50.5677C46.7045 50.4758 46.9462 50.43 47.1897 50.4329C47.4264 50.4255 47.6617 50.4706 47.8789 50.5649C48.0511 50.6467 48.2007 50.7693 48.3148 50.9219C48.428 51.0761 48.5032 51.255 48.534 51.4437C48.569 51.6568 48.5751 51.8735 48.552 52.0881L48.5404 52.2067ZM44.158 54.1095C44.156 54.1288 44.1492 54.1472 44.1381 54.1631C44.1217 54.1789 44.1023 54.1912 44.081 54.1991C44.0495 54.2119 44.0165 54.2206 43.9827 54.2249C43.9289 54.2306 43.8749 54.2334 43.8208 54.2332C43.769 54.2332 43.7173 54.2304 43.6658 54.2249C43.6328 54.2204 43.6006 54.2118 43.5699 54.1991C43.5513 54.1928 43.5356 54.18 43.5256 54.1631C43.5204 54.1553 43.517 54.1465 43.5157 54.1372C43.5143 54.1279 43.515 54.1185 43.5177 54.1095L44.0279 49.3622C44.0312 49.3417 44.0388 49.3221 44.0501 49.3046C44.057 49.2917 44.075 49.2811 44.1055 49.2686C44.1378 49.2569 44.1714 49.249 44.2055 49.2451C44.3092 49.2372 44.4133 49.2372 44.5169 49.2451C44.5504 49.2492 44.5834 49.2571 44.6152 49.2686C44.632 49.2775 44.6467 49.2897 44.6585 49.3046C44.6686 49.3221 44.6731 49.3421 44.6715 49.3622L44.158 54.1095ZM42.3289 54.1095C42.328 54.129 42.3211 54.1477 42.3091 54.1631C42.2926 54.1788 42.2732 54.1911 42.2519 54.1991C42.2203 54.2117 42.1873 54.2203 42.1537 54.2249C42.1002 54.2306 42.0464 54.2334 41.9926 54.2332C41.9405 54.2333 41.8885 54.2305 41.8367 54.2249C41.8047 54.2211 41.7734 54.2124 41.744 54.1991C41.7248 54.1945 41.7082 54.1825 41.6976 54.1658C41.6871 54.1491 41.6836 54.1288 41.6877 54.1095L42.1998 49.3622C42.2013 49.3418 42.2076 49.3221 42.2182 49.3046C42.2333 49.2878 42.2526 49.2754 42.274 49.2686C42.3067 49.2563 42.3408 49.2484 42.3755 49.2451C42.4272 49.2397 42.4791 49.2378 42.531 49.2392C42.5846 49.2377 42.6382 49.2397 42.6915 49.2451C42.7238 49.2493 42.7556 49.2572 42.7861 49.2686C42.8028 49.2787 42.8183 49.2908 42.8322 49.3046C42.84 49.3228 42.8432 49.3425 42.8415 49.3622L42.3289 54.1095ZM40.2544 52.3621C40.2736 52.1837 40.274 52.0038 40.2559 51.8252C40.2437 51.6709 40.2005 51.5205 40.129 51.3833C40.0645 51.2551 39.9627 51.1496 39.837 51.0806C39.6819 51.0008 39.5089 50.9623 39.3346 50.969C39.1626 50.9659 38.992 51.0008 38.835 51.0714C38.6928 51.1377 38.5672 51.235 38.4673 51.356C38.3637 51.4889 38.2814 51.637 38.2233 51.7952C38.1614 51.9746 38.1205 52.1605 38.1015 52.3493C38.0797 52.5279 38.0774 52.7084 38.0946 52.8876C38.1078 53.0416 38.1503 53.1916 38.2201 53.3296C38.2899 53.4548 38.3928 53.5585 38.5176 53.6293C38.6735 53.7091 38.8474 53.7471 39.0223 53.7396C39.1926 53.7424 39.3614 53.7071 39.5163 53.6363C39.6604 53.5733 39.7874 53.4768 39.8867 53.3549C39.9932 53.2253 40.0753 53.0774 40.129 52.9185C40.1919 52.7384 40.234 52.5518 40.2544 52.3621ZM40.9339 52.3216C40.9065 52.5918 40.839 52.8564 40.7337 53.1067C40.6412 53.3379 40.5045 53.549 40.3314 53.7281C40.16 53.9049 39.9535 54.0439 39.7253 54.1364C39.4737 54.2366 39.2049 54.2861 38.9341 54.2822C38.6807 54.2887 38.4285 54.2451 38.1919 54.1539C37.9964 54.0738 37.8251 53.944 37.6951 53.7774C37.5669 53.6012 37.4809 53.398 37.4437 53.1833C37.3966 52.9222 37.3899 52.6554 37.4239 52.3922C37.4515 52.1212 37.5171 51.8555 37.6189 51.6028C37.7103 51.3714 37.8464 51.1602 38.0194 50.9815C38.1907 50.8059 38.3969 50.668 38.6246 50.5769C38.8775 50.4758 39.1482 50.4269 39.4204 50.4329C39.6731 50.425 39.9247 50.4688 40.1599 50.5617C40.3546 50.6403 40.5253 50.7687 40.6548 50.9339C40.7848 51.1103 40.8733 51.3137 40.9137 51.529C40.9574 51.791 40.9642 52.0578 40.9339 52.3216ZM36.7527 53.5763C36.7502 53.6146 36.745 53.6527 36.7374 53.6903C36.7317 53.719 36.724 53.7474 36.7143 53.7751C36.7087 53.7957 36.6985 53.8148 36.6844 53.831C36.6645 53.8586 36.6407 53.8831 36.6138 53.9039C36.5579 53.9505 36.498 53.992 36.4348 54.0279C36.3465 54.0768 36.255 54.1195 36.1608 54.1558C36.0535 54.195 35.9434 54.2259 35.8315 54.2484C35.7134 54.2704 35.5936 54.2817 35.4735 54.2822C35.2491 54.2869 35.0263 54.2438 34.8198 54.1558C34.6399 54.077 34.4846 53.9512 34.37 53.7917C34.2492 53.6162 34.167 53.417 34.1287 53.2073C34.0872 52.9413 34.0843 52.6706 34.1199 52.4037C34.1459 52.0965 34.2199 51.7953 34.3391 51.511C34.4377 51.2834 34.5782 51.0764 34.7533 50.9008C34.9104 50.7465 35.0989 50.6278 35.306 50.5529C35.5162 50.4733 35.7395 50.4338 35.9643 50.4366C36.0725 50.4369 36.1804 50.4471 36.2867 50.4672C36.3828 50.4872 36.477 50.5149 36.5686 50.5502C36.6463 50.5789 36.7198 50.6181 36.7868 50.6668C36.8389 50.6975 36.8866 50.7348 36.9289 50.778C36.9513 50.8005 36.9697 50.8268 36.9833 50.8555C36.9945 50.8751 37.0017 50.8968 37.0046 50.9192C37.0114 50.9457 37.0141 50.9731 37.0124 51.0004C37.011 51.0308 37.0073 51.0714 37.0009 51.1162C37.0022 51.1916 36.9817 51.2658 36.9418 51.3298C36.9339 51.3464 36.9217 51.3606 36.9066 51.371C36.8914 51.3815 36.8738 51.3877 36.8555 51.3892C36.8058 51.3854 36.7595 51.3628 36.7259 51.326C36.6692 51.2745 36.6091 51.2269 36.546 51.1835C36.4627 51.1265 36.3734 51.0787 36.2798 51.041C36.1582 50.9953 36.0291 50.9732 35.8992 50.9759C35.7548 50.9723 35.6116 51.0027 35.4812 51.0647C35.3507 51.1266 35.2367 51.2184 35.1482 51.3325C34.9348 51.6365 34.8106 51.9941 34.7898 52.365C34.7671 52.5625 34.7671 52.762 34.7898 52.9596C34.8076 53.1109 34.8567 53.2568 34.9337 53.3882C34.9988 53.4984 35.0949 53.5871 35.21 53.6432C35.3382 53.7005 35.4775 53.7287 35.6178 53.7258C35.7526 53.7277 35.8865 53.7039 36.0123 53.6557C36.1192 53.6128 36.2225 53.5616 36.3213 53.5026C36.4085 53.4444 36.4828 53.395 36.5409 53.3489C36.5803 53.3143 36.6285 53.2911 36.6802 53.2821C36.6966 53.2818 36.7127 53.287 36.7259 53.2968C36.7396 53.3112 36.7489 53.3293 36.7527 53.3489C36.7596 53.3786 36.7622 53.409 36.7605 53.4394C36.7605 53.4808 36.7577 53.5224 36.7527 53.5763Z" fill="var(--logo-mark)"/>
</g>
<defs>
<clipPath id="clip0_0_21">
<rect width="80.0093" height="80" fill="var(--logo-mark)"/>
</clipPath>
</defs>
</svg>
