<svg width="106" height="106" viewBox="0 0 106 106" fill="none" xmlns="http://www.w3.org/2000/svg">
<path d="M19.9661 68.3569C19.9663 50.2181 34.6709 35.5142 52.8098 35.5142C70.9485 35.5144 85.6523 50.2183 85.6526 68.3569C85.6526 86.4958 70.9486 101.2 52.8098 101.201C34.6708 101.201 19.9661 86.496 19.9661 68.3569Z" stroke="currentColor" stroke-width="1.22"/>
<path d="M32.8979 76.979C32.898 65.9947 41.8023 57.0903 52.7866 57.0903C63.7709 57.0904 72.6752 65.9948 72.6753 76.979C72.6753 87.9633 63.7709 96.8676 52.7866 96.8677C41.8023 96.8677 32.8979 87.9633 32.8979 76.979Z" stroke="#FECD36" stroke-width="1.22"/>
<circle cx="53" cy="53" r="52.39" transform="rotate(180 53 53)" stroke="currentColor" stroke-width="1.22"/>
</svg>
