<svg width="159" height="175" viewBox="0 0 159 175" fill="none" xmlns="http://www.w3.org/2000/svg">
<path d="M114.229 54.8704C95.0457 35.6727 63.9433 35.6727 44.7599 54.8704C25.5766 74.0681 25.5766 105.194 44.7599 124.391C63.9433 143.589 95.0457 143.589 114.229 124.391C133.412 105.194 133.412 74.0681 114.229 54.8704Z" fill="#FECC00"/>
<path d="M144.364 33.4519C144.364 40.2588 150 45.7043 156.607 45.7043" stroke="currentColor" stroke-width="1.98"/>
<path d="M144.364 33.4519C144.364 40.2588 138.923 45.7043 132.121 45.7043" stroke="currentColor" stroke-width="1.98"/>
<path d="M144.364 57.9561C144.364 51.1493 150 45.7038 156.607 45.7038" stroke="currentColor" stroke-width="1.98"/>
<path d="M144.364 57.9561C144.364 51.1493 138.923 45.7038 132.121 45.7038" stroke="currentColor" stroke-width="1.98"/>
<path d="M80.0397 0C80.0397 6.80687 85.6755 12.2524 92.283 12.2524" stroke="currentColor" stroke-width="1.98"/>
<path d="M80.038 0C80.038 6.80687 74.5965 12.2524 67.7947 12.2524" stroke="currentColor" stroke-width="1.98"/>
<path d="M80.0397 24.5047C80.0397 17.6978 85.6755 12.2523 92.283 12.2523" stroke="currentColor" stroke-width="1.98"/>
<path d="M80.038 24.5047C80.038 17.6978 74.5965 12.2523 67.7947 12.2523" stroke="currentColor" stroke-width="1.98"/>
<path d="M107.635 150.335C107.635 157.142 113.271 162.588 119.878 162.588" stroke="currentColor" stroke-width="1.98"/>
<path d="M107.635 150.335C107.635 157.142 102.194 162.588 95.3919 162.588" stroke="currentColor" stroke-width="1.98"/>
<path d="M107.635 174.84C107.635 168.033 113.271 162.587 119.878 162.587" stroke="currentColor" stroke-width="1.98"/>
<path d="M107.635 174.84C107.635 168.033 102.194 162.587 95.3919 162.587" stroke="currentColor" stroke-width="1.98"/>
<path d="M84.8956 168.032C62.3525 169.588 40.0037 161.225 23.8737 145.278C-6.6372 114.549 -6.6372 64.7621 23.8737 34.034C31.6472 26.2547 40.9754 20.2257 51.081 16.3361" stroke="currentColor" stroke-width="1.98"/>
<path d="M154.665 66.9024C163.021 94.7133 155.442 124.664 135.037 145.279C133.288 147.029 131.344 148.779 129.401 150.335" stroke="currentColor" stroke-width="1.98"/>
<path d="M19.7943 105.604C13.9642 84.2111 20.183 61.4568 35.7299 45.8982" stroke="currentColor" stroke-width="1.98"/>
</svg>
