<svg width="150" height="150" viewBox="0 0 150 150" fill="none" xmlns="http://www.w3.org/2000/svg">
<rect width="148" height="148" rx="74" transform="matrix(4.37114e-08 1 1 -4.37114e-08 1 1)" stroke="#1D1D1B" stroke-width="2"/>
<path d="M75 108.477C68.0348 108.477 62.1269 105.95 57.2761 100.898C52.4254 95.8455 50 89.7424 50 82.5886V64.8559C50 58.3722 52.4876 53.0214 57.4627 48.8035C62.4378 44.5855 68.2836 42.4766 75 42.4766C81.2811 42.4766 87.018 44.5065 92.2108 48.5664C97.4036 52.6263 100 58.0561 100 64.8559V108.477H75ZM75 106.39H88.9925C86.194 104.747 83.9708 102.487 82.3228 99.6102C80.6748 96.7337 79.8507 93.557 79.8507 90.08V86.761C79.0423 86.8875 78.2494 86.9823 77.472 87.0455C76.6947 87.1087 75.8862 87.1404 75.0466 87.1404C70.2774 87.1404 65.8436 86.034 61.7453 83.8214C57.6465 81.6087 54.4465 78.4162 52.1455 74.2438L52.0522 82.5886C52.0522 89.1317 54.2677 94.7345 58.6987 99.3968C63.1297 104.059 68.5634 106.39 75 106.39ZM81.903 90.08C81.903 94.5685 83.4733 98.409 86.6138 101.602C89.7543 104.794 93.5323 106.39 97.9478 106.39L97.8545 74.3386C96.0597 77.4635 93.792 80.0147 91.0513 81.9922C88.3106 83.9703 85.2612 85.4019 81.903 86.2869V90.08ZM73.9739 68.3645C73.9739 63.8128 72.3414 59.9564 69.0765 56.7955C65.8116 53.6346 61.8781 51.9909 57.2761 51.8645C55.6617 53.5594 54.3874 55.5135 53.4534 57.7267C52.5193 59.9394 52.0522 62.3158 52.0522 64.8559C52.0522 70.8047 54.3479 75.6583 58.9394 79.4166C63.5308 83.175 68.8862 85.0541 75.0056 85.0541C81.125 85.0541 86.4785 83.175 91.0662 79.4166C95.6539 75.6583 97.9478 70.8047 97.9478 64.8559C97.9478 62.2589 97.468 59.8553 96.5084 57.6452C95.5482 55.4351 94.2245 53.4766 92.5373 51.7697C88.0118 52.0137 84.1287 53.7004 80.8881 56.8297C77.6468 59.9583 76.0261 63.8033 76.0261 68.3645H73.9739ZM61.5037 66.4215C61.1107 66.0112 60.9142 65.5054 60.9142 64.9042C60.9142 64.303 61.116 63.7812 61.5196 63.3386C61.9232 62.8961 62.4207 62.6748 63.0121 62.6748C63.6035 62.6748 64.1169 62.9018 64.5522 63.3557C64.9876 63.809 65.2052 64.3362 65.2052 64.9374C65.2052 65.5386 64.982 66.0387 64.5354 66.4376C64.0896 66.8371 63.5709 67.0369 62.9795 67.0369C62.3881 67.0369 61.8961 66.8318 61.5037 66.4215ZM85.4776 66.4215C85.0846 66.0112 84.8881 65.5054 84.8881 64.9042C84.8881 64.303 85.0899 63.7812 85.4935 63.3386C85.8971 62.8961 86.3946 62.6748 86.986 62.6748C87.5774 62.6748 88.0908 62.9018 88.5261 63.3557C88.9614 63.809 89.1791 64.3362 89.1791 64.9374C89.1791 65.5386 88.9558 66.0387 88.5093 66.4376C88.0634 66.8371 87.5448 67.0369 86.9534 67.0369C86.3619 67.0369 85.87 66.8318 85.4776 66.4215ZM59.3284 49.7783C62.9353 50.3473 66.1225 51.7223 68.8899 53.9033C71.6573 56.0843 73.694 58.7869 75 62.011C76.2438 58.7869 78.2649 56.1001 81.0634 53.9507C83.8619 51.8013 87.0336 50.4105 90.5784 49.7783C88.4017 48.1346 85.9981 46.8544 83.3675 45.9378C80.7376 45.0211 77.9478 44.5628 74.9981 44.5628C72.0491 44.5628 69.2289 45.0211 66.5373 45.9378C63.8458 46.8544 61.4428 48.1346 59.3284 49.7783ZM75 106.39C68.5634 106.39 63.1297 104.059 58.6987 99.3968C54.2677 94.7345 52.0522 89.1317 52.0522 82.5886H52.1455C52.0833 89.1633 54.2767 94.774 58.7257 99.4205C63.1748 104.067 68.5995 106.39 75 106.39ZM81.903 90.08C81.903 94.5685 83.4577 98.409 86.5672 101.602C89.6766 104.794 93.4391 106.39 97.8545 106.39H97.9478C93.5323 106.39 89.7543 104.794 86.6138 101.602C83.4733 98.409 81.903 94.5685 81.903 90.08Z" fill="#1C1B1F"/>
</svg>
