<svg width="259" height="151" viewBox="0 0 259 151" fill="none" xmlns="http://www.w3.org/2000/svg">
<path d="M75.3908 112.487C95.7917 112.487 112.33 95.9243 112.33 75.4938C112.33 55.0632 95.7917 38.501 75.3908 38.501C54.99 38.501 38.4518 55.0632 38.4518 75.4938C38.4518 95.9243 54.99 112.487 75.3908 112.487Z" stroke="currentColor" stroke-width="1.98"/>
<path d="M186.155 148.443C226.386 148.443 259 115.782 259 75.4925C259 35.203 226.386 2.54185 186.155 2.54185C145.924 2.54185 113.31 35.203 113.31 75.4925C113.31 115.782 145.924 148.443 186.155 148.443Z" fill="#FECC00"/>
<path d="M186.155 84.0306C190.863 84.0306 194.679 80.2086 194.679 75.4938C194.679 70.7791 190.863 66.9571 186.155 66.9571C181.447 66.9571 177.631 70.7791 177.631 75.4938C177.631 80.2086 181.447 84.0306 186.155 84.0306Z" stroke="currentColor" stroke-width="1.98"/>
<path d="M177.872 75.7975L75.3913 75.4934" stroke="currentColor" stroke-width="1.98"/>
<path d="M75.3848 149.996C116.472 149.996 149.78 116.64 149.78 75.4929C149.78 34.3461 116.472 0.990028 75.3848 0.990028C34.2977 0.990028 0.990028 34.3461 0.990028 75.4929C0.990028 116.64 34.2977 149.996 75.3848 149.996Z" stroke="currentColor" stroke-width="1.98" stroke-linecap="round" stroke-linejoin="round" stroke-dasharray="2 5"/>
</svg>
