<svg width="260" height="150" viewBox="0 0 260 150" fill="none" xmlns="http://www.w3.org/2000/svg">
<path d="M186.506 146.999C226.831 146.999 259.521 114.31 259.521 73.9852C259.521 33.6605 226.831 0.970893 186.506 0.970893C146.182 0.970893 113.492 33.6605 113.492 73.9852C113.492 114.31 146.182 146.999 186.506 146.999Z" fill="#FECD36"/>
<path d="M31.3531 85.2266L32.3457 84.2339C39.0107 77.569 45.4803 73.852 51.7545 73.0831C58.0287 72.3141 65.5709 72.0806 74.3813 72.3824C74.032 63.5247 74.2418 55.9587 75.0107 49.6845C75.7796 43.4103 79.4966 36.9407 86.1616 30.2757L87.1542 29.2831L88.6962 30.825L87.7035 31.8177C86.6163 32.9049 85.6139 33.9823 84.6962 35.0499C83.779 36.118 82.9703 37.2001 82.2701 38.2961L110.684 66.7104C111.769 65.9988 112.843 65.1816 113.905 64.2587C114.967 63.3353 116.041 62.33 117.129 61.2428L118.121 60.2502L119.687 61.8163L118.695 62.809C112.03 69.474 105.56 73.1909 99.2861 73.9598C93.0119 74.7288 85.4696 74.9623 76.6593 74.6605C77.0084 83.4235 76.7867 90.954 75.9941 97.2518C75.2016 103.55 71.4728 110.031 64.8078 116.696L63.8151 117.689L62.2732 116.147L63.2659 115.154C64.3531 114.067 65.3555 112.989 66.2732 111.922C67.1904 110.854 67.9991 109.772 68.6993 108.676L40.3562 80.3325C39.2715 81.0441 38.198 81.8614 37.1356 82.7843C36.0737 83.7076 34.9991 84.7129 33.9119 85.8001L32.9192 86.7928L31.3531 85.2266ZM76.6172 53.6308L95.3526 72.3662C97.7117 72.0782 100.004 71.5812 102.228 70.8752C104.453 70.1692 106.653 69.2027 108.83 67.9756L81.0662 40.212C79.7372 42.3951 78.725 44.5849 78.0293 46.7812C77.3342 48.978 76.8634 51.2611 76.6172 53.6308ZM76.5838 72.4579C79.5884 72.5951 82.3883 72.6926 84.9835 72.7504C87.5782 72.8086 90.0832 72.7691 92.4985 72.6319L76.3387 56.472C76.174 58.8911 76.1364 61.4141 76.226 64.0411C76.3165 66.6681 76.4358 69.4737 76.5838 72.4579ZM58.5421 74.411L74.6307 90.4997C74.768 88.0844 74.8075 85.5794 74.7492 82.9847C74.6914 80.3895 74.5939 77.5896 74.4567 74.585C71.4521 74.4478 68.6523 74.3503 66.0571 74.2925C63.4624 74.2343 60.9573 74.2738 58.5421 74.411ZM42.282 79.1385L69.9744 106.831C71.2488 104.607 72.235 102.396 72.933 100.198C73.631 97.999 74.104 95.7134 74.3522 93.341L55.7008 74.6895C53.3501 74.9548 51.0585 75.444 48.8257 76.1571C46.5921 76.8701 44.4108 77.864 42.282 79.1385Z" fill="#1D1D1B"/>
<path d="M143.012 97.7806C139.887 106.846 135.008 115.206 128.652 122.385C122.296 129.564 114.588 135.421 105.969 139.621C97.3491 143.821 87.9868 146.283 78.4161 146.865C68.8454 147.447 59.2538 146.138 50.1889 143.013C41.124 139.888 32.7634 135.008 25.5844 128.653C18.4054 122.297 12.5486 114.589 8.34833 105.969C4.14811 97.3499 1.68675 87.9875 1.10478 78.4168C0.522802 68.8461 1.83161 59.2545 4.95648 50.1896C8.08136 41.1248 12.9611 32.7641 19.3171 25.5851C25.6731 18.4061 33.3808 12.5493 42.0003 8.34906C50.6197 4.14884 59.9821 1.68748 69.5528 1.10551C79.1235 0.523535 88.7151 1.83235 97.7799 4.95722C106.845 8.08209 115.205 12.9618 122.384 19.3178C129.563 25.6738 135.42 33.3816 139.621 42.001C143.821 50.6205 146.282 59.9828 146.864 69.5535C147.446 79.1242 146.137 88.7158 143.012 97.7807L143.012 97.7806Z" stroke="#1D1D1B" stroke-width="1.98" stroke-linecap="round" stroke-linejoin="round" stroke-dasharray="2 5"/>
</svg>
