<svg width="260" height="150" viewBox="0 0 260 150" fill="none" xmlns="http://www.w3.org/2000/svg">
<path d="M186.506 146.999C226.831 146.999 259.521 114.31 259.521 73.9852C259.521 33.6605 226.831 0.970893 186.506 0.970893C146.182 0.970893 113.492 33.6605 113.492 73.9852C113.492 114.31 146.182 146.999 186.506 146.999Z" fill="#FECD36"/>
<path d="M143.012 97.7806C139.887 106.846 135.008 115.206 128.652 122.385C122.296 129.564 114.588 135.421 105.969 139.621C97.3491 143.821 87.9868 146.283 78.4161 146.865C68.8454 147.447 59.2538 146.138 50.1889 143.013C41.124 139.888 32.7634 135.008 25.5844 128.653C18.4054 122.297 12.5486 114.589 8.34833 105.969C4.14811 97.3499 1.68675 87.9875 1.10478 78.4168C0.522802 68.8461 1.83161 59.2545 4.95648 50.1896C8.08136 41.1248 12.9611 32.7641 19.3171 25.5851C25.6731 18.4061 33.3808 12.5493 42.0003 8.34906C50.6197 4.14884 59.9821 1.68748 69.5528 1.10551C79.1235 0.523535 88.7151 1.83235 97.7799 4.95722C106.845 8.08209 115.205 12.9618 122.384 19.3178C129.563 25.6738 135.42 33.3816 139.621 42.001C143.821 50.6205 146.282 59.9828 146.864 69.5535C147.446 79.1242 146.137 88.7158 143.012 97.7807L143.012 97.7806Z" stroke="#1D1D1B" stroke-width="1.98" stroke-linecap="round" stroke-linejoin="round" stroke-dasharray="2 5"/>
<path d="M51.2609 112.993H41.6276C40.1791 112.993 38.9586 112.496 37.966 111.504C36.9734 110.511 36.4771 109.291 36.4771 107.842V98.209H38.5754V107.842C38.5754 108.732 38.8616 109.464 39.4339 110.036C40.0061 110.608 40.7374 110.894 41.6276 110.894H51.2609V112.993ZM95.7077 112.993V110.894H105.341C106.231 110.894 106.963 110.608 107.535 110.036C108.107 109.464 108.393 108.732 108.393 107.842V98.209H110.492V107.842C110.492 109.291 109.995 110.511 109.003 111.504C108.01 112.496 106.79 112.993 105.341 112.993H95.7077ZM73.491 96.7783C66.9238 96.7783 61.0685 94.982 55.925 91.3893C50.7808 87.7967 46.8099 82.6621 44.0121 75.9855C46.8099 69.309 50.7818 64.1585 55.9278 60.5341C61.0739 56.9097 66.9419 55.0974 73.532 55.0974C80.0738 55.0974 85.9139 56.9097 91.0523 60.5341C96.1907 64.1585 100.159 69.309 102.957 75.9855C100.159 82.6621 96.19 87.7967 91.0504 91.3893C85.9107 94.982 80.0576 96.7783 73.491 96.7783ZM73.4366 94.6799C79.382 94.6799 84.7232 93.0585 89.4604 89.8156C94.1976 86.5727 97.9015 81.9627 100.572 75.9855C97.9015 70.0084 94.1976 65.3825 89.4604 62.1078C84.7232 58.8331 79.382 57.1958 73.4366 57.1958C67.4913 57.1958 62.166 58.8331 57.4606 62.1078C52.7552 65.3825 49.0354 70.0084 46.3012 75.9855C49.0354 81.9627 52.7552 86.5727 57.4606 89.8156C62.166 93.0585 67.4913 94.6799 73.4366 94.6799ZM73.5053 86.0004C76.2936 86.0004 78.6564 85.0313 80.5939 83.0932C82.5307 81.1551 83.4992 78.7789 83.4992 75.9646C83.4992 73.1763 82.5333 70.8134 80.6015 68.876C78.6698 66.9391 76.3012 65.9707 73.4958 65.9707C70.6903 65.9707 68.3179 66.9366 66.3786 68.8683C64.4392 70.8001 63.4695 73.1687 63.4695 75.9741C63.4695 78.7795 64.4385 81.1519 66.3766 83.0913C68.3148 85.0307 70.691 86.0004 73.5053 86.0004ZM73.5072 83.902C71.2963 83.902 69.4205 83.1314 67.8798 81.59C66.3385 80.0493 65.5678 78.1736 65.5678 75.9627C65.5678 73.7524 66.3385 71.8842 67.8798 70.3582C69.4205 68.8321 71.2963 68.0691 73.5072 68.0691C75.7175 68.0691 77.5856 68.8254 79.1117 70.3381C80.6378 71.8508 81.4008 73.7257 81.4008 75.9627C81.4008 78.1736 80.6445 80.0493 79.1317 81.59C77.619 83.1314 75.7442 83.902 73.5072 83.902ZM36.4771 53.7621V44.1288C36.4771 42.6803 36.9734 41.4598 37.966 40.4672C38.9586 39.4746 40.1791 38.9783 41.6276 38.9783H51.2609V41.0767H41.6276C40.7374 41.0767 40.0061 41.3628 39.4339 41.9351C38.8616 42.5074 38.5754 43.2386 38.5754 44.1288V53.7621H36.4771ZM108.393 53.7621V44.1288C108.393 43.2386 108.107 42.5074 107.535 41.9351C106.963 41.3628 106.231 41.0767 105.341 41.0767H95.7077V38.9783H105.341C106.79 38.9783 108.01 39.4746 109.003 40.4672C109.995 41.4598 110.492 42.6803 110.492 44.1288V53.7621H108.393Z" fill="#1D1D1B"/>
</svg>
