<svg width="259" height="151" viewBox="0 0 259 151" fill="none" xmlns="http://www.w3.org/2000/svg">
<path d="M186.155 148.444C226.386 148.444 259 115.783 259 75.4937C259 35.2042 226.386 2.54307 186.155 2.54307C145.924 2.54307 113.31 35.2042 113.31 75.4937C113.31 115.783 145.924 148.444 186.155 148.444Z" fill="#FECD36"/>
<path d="M75.3848 149.996C116.472 149.996 149.78 116.64 149.78 75.4932C149.78 34.3463 116.472 0.990273 75.3848 0.990273C34.2977 0.990273 0.990028 34.3463 0.990028 75.4932C0.990028 116.64 34.2977 149.996 75.3848 149.996Z" stroke="#1D1D1B" stroke-width="1.98" stroke-linecap="round" stroke-linejoin="round" stroke-dasharray="2 5"/>
<path d="M107.36 108.994L108.994 107.36L76.31 74.7782L93.3671 70.5905L77.3314 60.6831L78.7613 41.9919L64.462 54.0442L47.0985 46.9966L54.0439 64.3601L41.9916 78.6594L60.785 77.3316L70.5903 93.2652L74.7779 76.3103L107.36 108.994ZM69.7732 87.6476L61.9085 75.0846L47.2007 76.106L56.8016 64.7687L51.2862 51.1843L64.8705 56.6997L76.2079 47.0988L75.1865 61.8066L87.6473 69.6713L73.348 73.2461L69.7732 87.6476Z" fill="#1D1D1B"/>
</svg>
