<svg width="259" height="151" viewBox="0 0 259 151" fill="none" xmlns="http://www.w3.org/2000/svg">
<path d="M186.155 148.444C226.386 148.444 259 115.783 259 75.4937C259 35.2042 226.386 2.54307 186.155 2.54307C145.924 2.54307 113.31 35.2042 113.31 75.4937C113.31 115.783 145.924 148.444 186.155 148.444Z" fill="#FECD36"/>
<path d="M75.3848 149.996C116.472 149.996 149.78 116.64 149.78 75.4932C149.78 34.3463 116.472 0.990273 75.3848 0.990273C34.2977 0.990273 0.990028 34.3463 0.990028 75.4932C0.990028 116.64 34.2977 149.996 75.3848 149.996Z" stroke="#1D1D1B" stroke-width="1.98" stroke-linecap="round" stroke-linejoin="round" stroke-dasharray="2 5"/>
<path d="M50.7062 81.0894C49.099 81.0894 47.7448 80.5318 46.6436 79.4166C45.5423 78.3014 44.9917 76.9516 44.9917 75.3673C44.9917 73.783 45.5486 72.4333 46.6623 71.3181C47.7761 70.2028 49.124 69.6452 50.7062 69.6452V59.5422C50.7062 58.2589 51.1896 57.1336 52.1563 56.1662C53.123 55.1982 54.2468 54.7142 55.5279 54.7142H69.2784C69.2784 53.1049 69.829 51.7489 70.9302 50.6462C72.0315 49.5435 73.3857 48.9921 74.9929 48.9921C76.6001 48.9921 77.9543 49.5497 79.0555 50.6649C80.1568 51.7802 80.7074 53.1299 80.7074 54.7142H94.4579C95.7395 54.7142 96.8634 55.1982 97.8295 56.1662C98.7962 57.1336 99.2795 58.2589 99.2795 59.5422V69.6452C100.887 69.6452 102.241 70.2028 103.342 71.3181C104.443 72.4333 104.994 73.783 104.994 75.3673C104.994 76.9516 104.437 78.3014 103.323 79.4166C102.21 80.5318 100.862 81.0894 99.2795 81.0894V98.1662C99.2795 99.4489 98.7962 100.574 97.8295 101.542C96.8634 102.51 95.7395 102.994 94.4579 102.994H55.5279C54.2468 102.994 53.123 102.51 52.1563 101.542C51.1896 100.574 50.7062 99.4489 50.7062 98.1662V81.0894ZM65.6175 74.9882C66.0937 74.4977 66.3318 73.9016 66.3318 73.2001C66.3318 72.4991 66.0866 71.9102 65.5961 71.4334C65.1062 70.9566 64.5109 70.7181 63.8103 70.7181C63.1103 70.7181 62.5222 70.9637 62.046 71.4548C61.5698 71.9454 61.3316 72.5414 61.3316 73.243C61.3316 73.944 61.5769 74.5328 62.0674 75.0097C62.5573 75.4865 63.1525 75.7249 63.8532 75.7249C64.5532 75.7249 65.1413 75.4794 65.6175 74.9882ZM87.9398 74.9882C88.416 74.4977 88.6541 73.9016 88.6541 73.2001C88.6541 72.4991 88.4089 71.9102 87.9184 71.4334C87.4285 70.9566 86.8332 70.7181 86.1326 70.7181C85.4326 70.7181 84.8445 70.9637 84.3683 71.4548C83.892 71.9454 83.6539 72.5414 83.6539 73.243C83.6539 73.944 83.8992 74.5328 84.3897 75.0097C84.8796 75.4865 85.4748 75.7249 86.1755 75.7249C86.8755 75.7249 87.4636 75.4794 87.9398 74.9882ZM62.8496 90.8348H87.1362V88.8678H62.8496V90.8348ZM55.5279 101.027H94.4579C95.2318 101.027 95.9014 100.759 96.4669 100.223C97.0324 99.6861 97.3152 99.0007 97.3152 98.1662V59.5422C97.3152 58.7673 97.0324 58.0968 96.4669 57.5305C95.9014 56.9643 95.2318 56.6812 94.4579 56.6812H55.5279C54.754 56.6812 54.0843 56.9643 53.5188 57.5305C52.9533 58.0968 52.6706 58.7673 52.6706 59.5422V98.1662C52.6706 99.0007 52.9533 99.6861 53.5188 100.223C54.0843 100.759 54.754 101.027 55.5279 101.027Z" fill="#1D1D1B"/>
</svg>
