<svg width="259" height="151" viewBox="0 0 259 151" fill="none" xmlns="http://www.w3.org/2000/svg">
<path d="M186.155 148.444C226.386 148.444 259 115.783 259 75.4937C259 35.2042 226.386 2.54307 186.155 2.54307C145.924 2.54307 113.31 35.2042 113.31 75.4937C113.31 115.783 145.924 148.444 186.155 148.444Z" fill="#FECD36"/>
<path d="M75.3848 149.996C116.472 149.996 149.78 116.64 149.78 75.4932C149.78 34.3463 116.472 0.990273 75.3848 0.990273C34.2977 0.990273 0.990028 34.3463 0.990028 75.4932C0.990028 116.64 34.2977 149.996 75.3848 149.996Z" stroke="#1D1D1B" stroke-width="1.98" stroke-linecap="round" stroke-linejoin="round" stroke-dasharray="2 5"/>
<path d="M53.6382 104.994C52.3906 104.994 51.3044 104.538 50.3797 103.626C49.4545 102.715 48.9919 101.645 48.9919 100.415V63.867C48.9919 62.6374 49.4545 61.5667 50.3797 60.6548C51.3044 59.7435 52.3906 59.2878 53.6382 59.2878H63.0168C63.0168 55.8394 64.207 52.928 66.5875 50.5536C68.968 48.1792 71.9078 46.9921 75.4069 46.9921C78.9157 46.9921 81.8864 48.1792 84.3191 50.5536C86.7524 52.928 87.969 55.8394 87.969 59.2878H97.3476C98.5953 59.2878 99.6817 59.7435 100.607 60.6548C101.532 61.5667 101.994 62.6374 101.994 63.867V100.415C101.994 101.645 101.532 102.715 100.607 103.626C99.6817 104.538 98.5953 104.994 97.3476 104.994H53.6382ZM53.6382 103.129H97.3476C98.036 103.129 98.667 102.846 99.2406 102.281C99.8142 101.715 100.101 101.094 100.101 100.415V63.867C100.101 63.1886 99.8142 62.5667 99.2406 62.0014C98.667 61.4361 98.036 61.1534 97.3476 61.1534H53.6382C52.9498 61.1534 52.3189 61.4361 51.7452 62.0014C51.1716 62.5667 50.8848 63.1886 50.8848 63.867V100.415C50.8848 101.094 51.1716 101.715 51.7452 102.281C52.3189 102.846 52.9498 103.129 53.6382 103.129ZM84.4413 73.4492C86.9079 71.0183 88.1411 68.0786 88.1411 64.6302H86.2482C86.2482 67.5698 85.1836 70.0714 83.0543 72.1348C80.925 74.1983 78.4011 75.23 75.4826 75.23C72.564 75.23 70.0579 74.1983 67.9642 72.1348C65.8705 70.0714 64.8237 67.5698 64.8237 64.6302H62.9307C62.9307 68.0786 64.1497 71.0183 66.5875 73.4492C69.0254 75.8801 71.9939 77.0956 75.4929 77.0956C78.992 77.0956 81.9748 75.8801 84.4413 73.4492ZM64.9097 59.2878H86.0761C86.0761 56.4047 85.0436 53.9455 82.9786 51.9104C80.9136 49.8752 78.4183 48.8576 75.4929 48.8576C72.5675 48.8576 70.0722 49.8752 68.0072 51.9104C65.9422 53.9455 64.9097 56.4047 64.9097 59.2878Z" fill="#1D1D1B"/>
</svg>
