<svg width="259" height="151" viewBox="0 0 259 151" fill="none" xmlns="http://www.w3.org/2000/svg">
<path d="M186.155 148.444C226.386 148.444 259 115.783 259 75.4937C259 35.2042 226.386 2.54307 186.155 2.54307C145.924 2.54307 113.31 35.2042 113.31 75.4937C113.31 115.783 145.924 148.444 186.155 148.444Z" fill="#FECD36"/>
<path d="M75.3848 149.996C116.472 149.996 149.78 116.64 149.78 75.4932C149.78 34.3463 116.472 0.990273 75.3848 0.990273C34.2977 0.990273 0.990028 34.3463 0.990028 75.4932C0.990028 116.64 34.2977 149.996 75.3848 149.996Z" stroke="#1D1D1B" stroke-width="1.98" stroke-linecap="round" stroke-linejoin="round" stroke-dasharray="2 5"/>
<path d="M72.2816 90.7265C68.5142 90.1259 65.3747 88.406 62.8631 85.5668C60.3515 82.7276 59.0957 79.3697 59.0957 75.4932C59.0957 71.1617 60.5789 67.5126 63.5453 64.5456C66.5123 61.5792 70.1615 60.096 74.4929 60.096C78.3695 60.096 81.7273 61.3382 84.5665 63.8224C87.4057 66.3067 89.1256 69.4326 89.7262 73.2L87.6787 72.6267C87.0279 69.5145 85.4816 66.9483 83.0399 64.9281C80.5977 62.9079 77.7487 61.8978 74.4929 61.8978C70.7255 61.8978 67.5177 63.2218 64.8697 65.8699C62.2216 68.518 60.8975 71.7258 60.8975 75.4932C60.8975 78.7691 61.9213 81.6356 63.9688 84.0926C66.0162 86.5496 68.5688 88.1057 71.6264 88.7609L72.2816 90.7265ZM76.2128 103.912C75.9261 103.967 75.6395 103.994 75.3528 103.994H74.4929C70.5502 103.994 66.8451 103.247 63.3774 101.751C59.9098 100.256 56.8934 98.2258 54.3283 95.6618C51.7632 93.0978 49.7324 90.083 48.2358 86.6176C46.7398 83.1516 45.9918 79.4481 45.9918 75.5071C45.9918 71.5666 46.7395 67.8612 48.235 64.3908C49.7305 60.9205 51.7602 57.9019 54.3242 55.3352C56.8883 52.7679 59.903 50.7357 63.3684 49.2386C66.8344 47.7409 70.5379 46.9921 74.4789 46.9921C78.4194 46.9921 82.1248 47.7403 85.5952 49.2369C89.0656 50.733 92.0841 52.7635 94.6509 55.3286C97.2181 57.8937 99.2503 60.9101 100.747 64.3777C102.245 67.8454 102.994 71.5505 102.994 75.4932V76.3121C102.994 76.5851 102.967 76.8581 102.912 77.1311L101.192 76.6397V75.4932C101.192 68.0676 98.5987 61.7613 93.4117 56.5743C88.2247 51.3873 81.9184 48.7938 74.4929 48.7938C67.0673 48.7938 60.761 51.3873 55.574 56.5743C50.3871 61.7613 47.7936 68.0676 47.7936 75.4932C47.7936 82.9187 50.3871 89.225 55.574 94.412C60.761 99.599 67.0673 102.192 74.4929 102.192H75.6395L76.2128 103.912ZM99.1447 102.602L82.9285 86.3039L80.2259 94.4939L74.4929 75.4932L93.4936 81.2261L85.3036 83.9288L101.602 100.145L99.1447 102.602Z" fill="#1D1D1B"/>
</svg>
