<svg preserveAspectRatio="none" width="100%" height="100%" overflow="visible" style="display: block;" viewBox="0 0 51.776 22.6489" fill="none" xmlns="http://www.w3.org/2000/svg">
<path id="Vector" fill-rule="evenodd" clip-rule="evenodd" d="M51.3897 15.0685C51.4151 15.0682 51.4395 15.0588 51.4585 15.042C51.4776 15.0253 51.49 15.0022 51.4935 14.9771V14.9767L51.7048 13.4139C52.2316 9.507 49.7913 7.91225 45.86 7.84357C43.6806 7.7517 41.5383 8.42915 39.8081 9.75742C38.787 10.5466 38.1055 11.6956 37.9024 12.97L37.7747 13.9466C37.7205 14.568 37.5798 15.1789 37.3567 15.7614C37.3011 15.8769 37.216 15.9757 37.1101 16.0479C37.0042 16.1201 36.8811 16.1631 36.7533 16.1726C36.6254 16.1821 36.4973 16.1579 36.3819 16.1022C36.2664 16.0465 36.1676 15.9615 36.0955 15.8555C35.7337 15.2127 35.1873 14.6933 34.5271 14.3646C34.296 14.2364 34.2213 14.2045 33.9232 14.0637L31.398 12.8465C30.9458 12.6036 30.5839 12.2214 30.3662 11.7566C30.1485 11.2918 30.0865 10.7692 30.1894 10.2663C30.2756 9.84516 30.4725 9.45462 30.76 9.13506C31.0475 8.81549 31.4151 8.57845 31.8248 8.4484C32.2345 8.31835 32.6715 8.30003 33.0907 8.39529C33.5099 8.49055 33.896 8.69597 34.2093 8.99032C33.7206 9.13952 33.3019 9.45916 33.0291 9.89114C32.7564 10.3231 32.6478 10.8387 32.7232 11.344C32.7986 11.8493 33.0528 12.3107 33.4398 12.6443C33.8267 12.9779 34.3206 13.1614 34.8315 13.1615C35.1076 13.1637 35.3815 13.1113 35.6373 13.0074C35.8932 12.9036 36.126 12.7502 36.3225 12.5562C36.7295 12.1258 36.9631 11.5602 36.9783 10.9681C36.9936 10.3759 36.7894 9.79904 36.4051 9.3483C36.1355 8.9741 35.7894 8.66149 35.3897 8.43121C34.385 7.85519 33.2571 7.52759 32.1001 7.47567C30.9431 7.42376 29.7904 7.64903 28.7381 8.13275C27.6803 8.61637 26.7755 9.38083 26.122 10.3429C25.8218 10.8508 25.64 11.4199 25.5901 12.0077C25.5373 12.7037 25.6681 13.4013 25.9695 14.0309C26.2708 14.6604 26.732 15.1998 27.3071 15.5953C27.4446 15.6728 27.535 15.7374 27.6748 15.8057L30.5962 17.2108C31.0066 17.4409 31.3429 17.7834 31.5656 18.1979C31.7882 18.6124 31.8881 19.0817 31.8533 19.551C31.818 20.1818 31.5454 20.7758 31.0903 21.2141C30.8753 21.4073 30.6352 21.5708 30.3766 21.7002C30.0485 21.8526 29.6908 21.931 29.329 21.93C28.945 21.9319 28.5658 21.8455 28.2205 21.6775C27.8752 21.5095 27.5731 21.2645 27.3375 20.9613C27.3625 20.9521 27.481 20.9174 27.5073 20.9091C27.8812 20.783 28.2174 20.565 28.4849 20.2749C28.7325 19.9929 28.8986 19.6486 28.9651 19.2793C29.0609 18.7569 28.9582 18.2177 28.6771 17.7671C28.396 17.3166 27.9567 16.9872 27.4454 16.8437C26.9341 16.7002 26.3876 16.7528 25.9131 16.9912C25.4386 17.2296 25.0702 17.6366 24.8801 18.1325C24.5974 18.8485 24.3031 19.5588 24.0056 20.2693C23.9821 20.3418 23.9328 20.4031 23.867 20.4415C23.8012 20.48 23.7236 20.4929 23.6489 20.4778C23.5817 20.4706 23.52 20.4374 23.4769 20.3854C23.4337 20.3334 23.4125 20.2666 23.4178 20.1992L24.9217 8.27391C24.9433 8.10555 24.7884 7.85319 24.5895 7.88872H19.9322L18.3292 20.3962C18.2869 20.7806 18.0938 21.1325 17.7923 21.3747C17.4908 21.6169 17.1056 21.7296 16.7211 21.688C16.3366 21.6464 15.9843 21.4541 15.7415 21.1531C15.4988 20.852 15.3853 20.467 15.4261 20.0824L16.941 8.27944C16.9471 8.2311 16.9429 8.18203 16.9288 8.1354C16.9146 8.08878 16.8908 8.04567 16.859 8.00883C16.8271 7.97199 16.7878 7.94222 16.7437 7.92153C16.6996 7.90084 16.6516 7.88968 16.6029 7.88872H8.98305C9.03473 7.52385 9.07442 7.21842 9.12421 6.90429L9.58552 3.11003C9.61428 2.78991 9.70744 2.47891 9.85942 2.19571C10.0114 1.91251 10.2191 1.66293 10.4699 1.462C10.7208 1.26108 11.0097 1.11299 11.3192 1.02653C11.6288 0.940069 11.9526 0.917038 12.2713 0.958889C12.6328 0.987816 12.9697 1.15349 13.2133 1.4221C13.457 1.69071 13.5891 2.04209 13.5827 2.40469L13.5758 2.56199C13.245 2.71812 12.9535 2.94652 12.7227 3.23037C12.492 3.51422 12.3279 3.84627 12.2427 4.202C12.2153 4.30421 12.1963 4.40844 12.1859 4.51373C12.1757 4.53032 12.1712 4.54972 12.1729 4.56909C12.1711 4.59866 12.1712 4.61983 12.1712 4.63551C12.1335 5.25362 12.3324 5.86291 12.7274 6.33982C13.1224 6.81672 13.684 7.12555 14.2983 7.20367C14.6441 7.25573 14.9971 7.23172 15.3327 7.13332C15.6682 7.03493 15.9783 6.86451 16.2413 6.63396C16.5992 6.33158 16.8914 5.95905 17.0998 5.53933C17.3081 5.11961 17.4282 4.66159 17.4526 4.19364C17.5449 1.70628 15.285 0.362023 13.0665 0.0728319C11.5778 -0.126014 10.063 0.0841438 8.68462 0.680778C7.42873 1.21772 6.33004 2.06524 5.4919 3.1437C4.65376 4.22216 4.10369 5.49612 3.89344 6.8457L3.74626 7.88872H1.93836C1.91322 7.88838 1.88885 7.8973 1.86988 7.9138C1.85092 7.9303 1.83871 7.95321 1.83557 7.97815V7.97913L1.77321 8.47596L1.77191 8.48559C1.77192 8.51094 1.78105 8.53546 1.79766 8.55461C1.81427 8.57377 1.83723 8.5863 1.86233 8.5899H1.86553C2.0922 8.5982 2.3147 8.65334 2.519 8.75188C2.7233 8.85042 2.90498 8.99022 3.05259 9.16245C3.2002 9.33467 3.31054 9.5356 3.37666 9.75257C3.44278 9.96955 3.46323 10.1979 3.43675 10.4231L2.22209 20.0262C2.17196 20.5434 1.93445 21.0244 1.55432 21.3786C1.17419 21.7328 0.677667 21.9358 0.158258 21.9494H0.154568C0.129991 21.9517 0.106921 21.9623 0.089091 21.9794C0.071261 21.9964 0.0597391 22.019 0.0563381 22.0435V22.0435L0.000952313 22.5237L8.65214e-07 22.5376C-0.000108713 22.5646 0.0101939 22.5907 0.0287461 22.6103C0.0472984 22.63 0.0726799 22.6417 0.0996722 22.6432H1.78059L4.17717 22.6478L9.8083 22.6432C9.83443 22.6422 9.85926 22.6316 9.87799 22.6133C9.89673 22.5951 9.90803 22.5706 9.90976 22.5445L9.96287 22.0712C9.9645 22.0661 9.96528 22.0608 9.96515 22.0555C9.96486 22.0277 9.95357 22.0011 9.93378 21.9816C9.914 21.9621 9.8873 21.9512 9.85951 21.9512H9.07944C8.84463 21.9517 8.61244 21.9018 8.39855 21.8049C8.18465 21.7081 7.994 21.5664 7.83947 21.3896C7.68494 21.2129 7.57011 21.005 7.50272 20.7801C7.43532 20.5552 7.41692 20.3184 7.44877 20.0858L8.90181 8.52763L9.80283 8.53363C10.038 8.52963 10.2713 8.57672 10.4865 8.67173C10.7016 8.76673 10.8936 8.90737 11.0491 9.08385C11.2046 9.26034 11.3199 9.4685 11.3871 9.69393C11.4543 9.91936 11.4717 10.1567 11.4381 10.3895L10.5262 17.656C10.4566 18.4362 10.5959 19.2208 10.9299 19.9293C11.264 20.6378 11.7806 21.2446 12.4267 21.6874C13.4538 22.3436 14.6549 22.6747 15.8732 22.6376C17.4228 22.6794 18.9389 22.1814 20.1619 21.2288C20.1703 21.2501 20.2352 21.3907 20.2427 21.4041C20.4266 21.7888 20.7191 22.1111 21.0842 22.3313C21.4493 22.5516 21.8709 22.66 22.2969 22.6432C22.6868 22.6253 23.0652 22.5052 23.3941 22.2948C23.7229 22.0844 23.9906 21.7912 24.1702 21.4447L24.7607 20.1291C25.2299 22.0804 27.7117 22.6386 29.4375 22.6432C30.8777 22.6944 32.3093 22.4003 33.6127 21.7856C34.4283 21.4222 35.1575 20.89 35.7525 20.2243C36.3474 19.5585 36.7945 18.7742 37.0642 17.9231L37.3646 17.2339C37.0605 19.7628 38.016 21.1292 39.5738 21.8479C42.4237 23.1682 47.2532 22.86 49.658 20.7897C50.0252 20.4763 50.3366 20.1029 50.5787 19.6852C50.8491 19.2474 50.9864 18.7404 50.9739 18.2259C50.9614 17.7115 50.7997 17.2117 50.5085 16.7875C50.2173 16.3632 49.809 16.0327 49.3334 15.8361C48.8578 15.6396 48.3354 15.5855 47.8296 15.6804C47.3238 15.7754 46.8565 16.0152 46.4845 16.3708C46.1125 16.7264 45.8519 17.1824 45.7343 17.6834C45.6167 18.1844 45.6472 18.7088 45.8221 19.1928C45.997 19.6768 46.3088 20.0994 46.7195 20.4095L46.6429 20.6005C46.4074 21.0658 46.0234 21.4392 45.5516 21.6614C45.0799 21.8836 44.5475 21.9419 44.0388 21.8271C43.7982 21.8294 43.5602 21.7769 43.3429 21.6735C43.1256 21.5702 42.9347 21.4188 42.7846 21.2307C42.6345 21.0426 42.5292 20.8228 42.4767 20.588C42.4241 20.3531 42.4258 20.1095 42.4814 19.8753L43.0755 15.0685H51.3897ZM46.6507 10.1583L46.6618 10.0809C46.7744 7.96025 43.9575 8.4206 43.7444 9.85521L43.7084 10.1399L43.1978 14.1911H46.1663L46.6507 10.1583V10.1583Z" fill="var(--fill-0, white)"/>
</svg>
