<svg preserveAspectRatio="none" width="100%" height="100%" overflow="visible" style="display: block;" viewBox="0 0 29.8267 5.05503" fill="none" xmlns="http://www.w3.org/2000/svg">
<path id="Vector" fill-rule="evenodd" clip-rule="evenodd" d="M22.4605 0.38451C22.4596 0.498068 22.4175 0.607475 22.3419 0.69226C22.2458 0.755402 22.1312 0.784138 22.0167 0.773854C21.9103 0.786 21.8032 0.756809 21.7178 0.69226C21.6889 0.64875 21.6693 0.599703 21.6602 0.548275C21.651 0.496847 21.6526 0.444134 21.6647 0.393333C21.6652 0.279229 21.7081 0.169352 21.7851 0.0851218C21.8801 0.0212028 21.9945 -0.00748039 22.1084 0.00398937C22.1612 -0.00353106 22.2151 -0.000398639 22.2667 0.0132155C22.3182 0.0268297 22.3666 0.0506139 22.4088 0.083219C22.437 0.127481 22.4561 0.176972 22.465 0.228704C22.4738 0.280436 22.4723 0.333378 22.4605 0.38451V0.38451ZM29.173 2.78885C29.2312 2.51563 29.1806 2.23047 29.0319 1.99401C28.9546 1.89429 28.8534 1.81563 28.7377 1.76532C28.622 1.71501 28.4955 1.69468 28.3698 1.70616C28.2222 1.70373 28.0759 1.73495 27.9421 1.7975C27.8182 1.85378 27.7069 1.93446 27.6147 2.03467C27.5231 2.13604 27.4487 2.2516 27.3942 2.3769C27.3342 2.50752 27.2939 2.64638 27.2747 2.78885H29.173ZM29.798 2.9789C29.7945 3.06092 29.76 3.1386 29.7016 3.19624C29.6499 3.23637 29.5866 3.25883 29.5212 3.2603H27.2239C27.2041 3.43478 27.2048 3.61097 27.2262 3.78527C27.2438 3.92892 27.295 4.06641 27.3756 4.18661C27.4596 4.30082 27.5737 4.38945 27.7051 4.44263C27.872 4.50854 28.0507 4.53917 28.23 4.53259C28.3795 4.53359 28.5288 4.51986 28.6757 4.49159C28.8072 4.46249 28.9201 4.43383 29.0198 4.40152C29.1194 4.36515 29.1997 4.33652 29.2644 4.30932C29.3089 4.28616 29.3577 4.27222 29.4078 4.26826C29.4242 4.26788 29.4405 4.27203 29.4548 4.28025C29.4685 4.2908 29.4787 4.30532 29.4839 4.32183C29.4897 4.34689 29.4919 4.37266 29.4903 4.39835C29.492 4.43745 29.4906 4.47658 29.4862 4.51546C29.4828 4.54493 29.4779 4.57423 29.4714 4.60317C29.4672 4.62562 29.4617 4.64781 29.4548 4.6696C29.4503 4.68906 29.4425 4.70756 29.4317 4.72444C29.4198 4.74018 29.4062 4.75457 29.3911 4.76734C29.3483 4.79503 29.3029 4.81857 29.2555 4.83757C29.1642 4.87649 29.0699 4.90811 28.9736 4.93214C28.8592 4.96436 28.7241 4.99069 28.5779 5.01742C28.4217 5.04244 28.2637 5.05481 28.1055 5.05439C27.8516 5.05975 27.5988 5.01831 27.36 4.93214C27.1624 4.85853 26.9873 4.73505 26.8516 4.5737C26.7131 4.40139 26.62 4.19711 26.5808 3.97954C26.4869 3.42518 26.5502 2.8556 26.7635 2.33538C26.8576 2.10776 26.9938 1.8999 27.1649 1.72276C27.3283 1.55886 27.5223 1.42877 27.736 1.33988C27.9626 1.24841 28.2052 1.20259 28.4496 1.20512C28.6848 1.19698 28.9189 1.2421 29.1343 1.33711C29.309 1.41713 29.4606 1.53995 29.5753 1.69416C29.6861 1.84972 29.7611 2.02794 29.7948 2.21596C29.8297 2.42898 29.836 2.64566 29.8137 2.86035L29.798 2.9789V2.9789ZM26.3336 1.37027C26.3338 1.3816 26.3319 1.39289 26.328 1.40354C26.3268 1.41661 26.3234 1.42937 26.3179 1.44131C26.3163 1.4569 26.3119 1.47209 26.3049 1.48611C26.2994 1.5023 26.2929 1.51816 26.2856 1.53363L24.7342 4.86473C24.7209 4.88956 24.704 4.91231 24.684 4.93214C24.6618 4.9537 24.6342 4.96891 24.6041 4.97631C24.5606 4.98823 24.5159 4.99523 24.4708 4.99713C24.422 5.00175 24.3564 5.00543 24.2762 5.00543C24.201 5.00543 24.1354 5.00175 24.0824 4.99713C24.0406 4.99248 23.9994 4.98386 23.9593 4.97135C23.9316 4.96478 23.9067 4.94959 23.8882 4.92799C23.8713 4.91014 23.8589 4.8884 23.8522 4.86473L23.0223 1.53363C23.0141 1.50754 23.0088 1.48058 23.0067 1.4533C23.0019 1.43647 22.9993 1.41912 22.9988 1.40164C22.9988 1.38964 23.0007 1.38142 23.0007 1.37027C23.0017 1.34985 23.0094 1.33036 23.0223 1.31456C23.0373 1.29854 23.0562 1.28675 23.0772 1.28037C23.109 1.27086 23.1418 1.26524 23.175 1.26371C23.2188 1.26002 23.2673 1.2573 23.3259 1.2573C23.402 1.2573 23.462 1.26371 23.5076 1.26607C23.5431 1.26683 23.5782 1.27354 23.6115 1.28591C23.6299 1.29621 23.6466 1.30945 23.6608 1.32512C23.6726 1.34236 23.6803 1.3621 23.6833 1.38278L24.3647 4.27241L24.3762 4.31814L24.3911 4.27241L25.6785 1.38278C25.6856 1.36122 25.6974 1.3415 25.7131 1.32512C25.7317 1.30907 25.7525 1.29585 25.775 1.28591C25.8079 1.27372 25.8427 1.26702 25.8778 1.26607C25.9202 1.26371 25.9766 1.2573 26.0467 1.2573C26.1089 1.2573 26.1565 1.26002 26.1939 1.26371C26.2255 1.26419 26.2566 1.27093 26.2856 1.28354C26.3026 1.28988 26.3168 1.30211 26.3256 1.31802C26.3345 1.33393 26.3373 1.35246 26.3336 1.37027V1.37027ZM21.8986 4.88174C21.8979 4.90169 21.89 4.92072 21.8764 4.93531C21.8606 4.95101 21.8418 4.96332 21.821 4.97135C21.7893 4.98389 21.7561 4.99254 21.7223 4.99713C21.6171 5.00822 21.5111 5.00822 21.4059 4.99713C21.3725 4.99269 21.3398 4.98404 21.3086 4.97135C21.2901 4.96516 21.2744 4.9523 21.2648 4.93531C21.2559 4.91893 21.2529 4.90008 21.256 4.88174L21.6352 1.38145C21.6357 1.36283 21.643 1.34504 21.6559 1.33158C21.6608 1.32115 21.668 1.31197 21.677 1.3047C21.6859 1.29744 21.6964 1.29226 21.7076 1.2896C21.7399 1.27825 21.7733 1.27036 21.8073 1.26607C21.8524 1.26371 21.9036 1.2573 21.966 1.2573C22.0305 1.2573 22.0836 1.26371 22.1237 1.26607C22.1562 1.27046 22.1882 1.27834 22.2191 1.2896C22.2389 1.29738 22.2549 1.31241 22.2639 1.33158C22.2697 1.33838 22.274 1.34637 22.2764 1.35499C22.2788 1.3636 22.2792 1.37264 22.2777 1.38145L21.8986 4.88174V4.88174ZM20.4335 4.62439C20.4285 4.68585 20.4171 4.74661 20.3994 4.80568C20.389 4.84154 20.37 4.87431 20.344 4.90112C20.3139 4.92623 20.2791 4.94505 20.2416 4.95647C20.1953 4.97896 20.1463 4.99543 20.0958 5.00543C20.0422 5.01743 19.9837 5.02482 19.9256 5.03455C19.8651 5.04196 19.8043 5.04581 19.7433 5.04608C19.5868 5.05005 19.4308 5.0264 19.2825 4.97631C19.1656 4.9318 19.0633 4.85565 18.9872 4.75632C18.9088 4.64755 18.8602 4.52017 18.8461 4.38682C18.8247 4.21111 18.8247 4.03346 18.8461 3.85775L19.0693 1.81272H18.579C18.5596 1.8125 18.5407 1.80611 18.5251 1.7945C18.5095 1.78289 18.4981 1.76664 18.4923 1.74808C18.4706 1.68328 18.4666 1.61391 18.4808 1.54706C18.4846 1.50475 18.4909 1.4627 18.4996 1.42113C18.5093 1.39308 18.5214 1.3659 18.5357 1.33988C18.5448 1.31894 18.5617 1.30227 18.5827 1.29329C18.6002 1.28356 18.6199 1.27846 18.6399 1.27852H19.1279L19.2151 0.445864C19.2151 0.427526 19.2215 0.409737 19.2332 0.395582C19.2475 0.377268 19.2664 0.363069 19.288 0.354468C19.3216 0.34104 19.3568 0.33209 19.3927 0.32777C19.4977 0.321093 19.6029 0.321093 19.7078 0.32777C19.7406 0.331183 19.7727 0.340189 19.8024 0.354468C19.8203 0.365087 19.8359 0.379056 19.8485 0.395582C19.8555 0.411389 19.859 0.428566 19.8587 0.445864L19.7705 1.27852H20.6664C20.6855 1.27777 20.7044 1.28294 20.7204 1.29329C20.7377 1.30366 20.7503 1.32038 20.7555 1.33988C20.7673 1.36533 20.7732 1.39308 20.773 1.42113C20.7738 1.46324 20.7713 1.50534 20.7656 1.54706C20.7629 1.61745 20.744 1.68623 20.7103 1.74808C20.7008 1.76668 20.6864 1.78246 20.6689 1.79381C20.6513 1.80515 20.631 1.81166 20.6102 1.81272H19.7105L19.4998 3.76451C19.4663 3.94851 19.4829 4.13807 19.5478 4.31347C19.583 4.37692 19.6364 4.42844 19.7011 4.46132C19.7658 4.4942 19.8388 4.50694 19.9108 4.49799C19.9653 4.49878 20.0196 4.49225 20.0723 4.47862C20.1167 4.47006 20.1603 4.45803 20.2028 4.44263C20.2354 4.43214 20.2675 4.41979 20.2988 4.40567C20.3216 4.39585 20.3459 4.38995 20.3707 4.3882C20.3836 4.38792 20.3963 4.39147 20.4072 4.39835C20.4133 4.40237 20.4182 4.40785 20.4215 4.41432C20.4248 4.42079 20.4264 4.42799 20.4261 4.43525C20.4351 4.45928 20.4394 4.48481 20.4386 4.51045C20.44 4.5485 20.4383 4.58661 20.4335 4.62439V4.62439ZM17.7911 4.34853C17.7885 4.38677 17.7836 4.42482 17.7763 4.46247C17.7703 4.49122 17.7624 4.51954 17.7528 4.54729C17.7451 4.56705 17.735 4.58583 17.7228 4.60317C17.7014 4.62987 17.6773 4.65432 17.6509 4.67611C17.5961 4.72318 17.5367 4.76472 17.4738 4.80015C17.3843 4.84986 17.2911 4.89261 17.1951 4.92799C17.089 4.96709 16.9802 4.99805 16.8694 5.02065C16.7515 5.0425 16.6318 5.05379 16.5119 5.05439C16.2873 5.05894 16.0644 5.01587 15.8577 4.92799C15.677 4.84997 15.5211 4.72409 15.4066 4.56396C15.2858 4.38868 15.2044 4.1893 15.1681 3.97954C15.1273 3.71351 15.1227 3.44315 15.1543 3.17588C15.1833 2.86891 15.2581 2.56802 15.3762 2.28319C15.4751 2.05543 15.6161 1.84842 15.7918 1.673C15.9485 1.51804 16.1373 1.39928 16.3448 1.32512C16.5546 1.24527 16.7775 1.20581 17.0018 1.20881C17.1087 1.20883 17.2152 1.2191 17.3201 1.23937C17.4166 1.25802 17.5112 1.28582 17.6024 1.32241C17.682 1.35 17.7569 1.3893 17.8248 1.43906C17.8761 1.46984 17.9231 1.5072 17.9646 1.55023C17.9869 1.57357 18.0063 1.59962 18.0222 1.62773C18.0314 1.6481 18.0382 1.66945 18.0425 1.69139C18.0478 1.7181 18.0498 1.74539 18.0485 1.77259C18.0476 1.81132 18.0447 1.84994 18.0398 1.88837C18.038 1.96329 18.0178 2.03666 17.9812 2.10202C17.9723 2.1189 17.9592 2.13319 17.9432 2.14359C17.9272 2.15399 17.9089 2.16013 17.8898 2.16141C17.8414 2.15678 17.7965 2.13424 17.7639 2.09821C17.7074 2.04681 17.6476 1.9992 17.5848 1.95572C17.5011 1.89883 17.4116 1.85105 17.3178 1.81318C17.1953 1.76733 17.0652 1.74523 16.9345 1.74808C16.7905 1.74433 16.6476 1.77473 16.5176 1.83671C16.3875 1.89869 16.274 1.9905 16.1862 2.10473C15.9713 2.40788 15.8473 2.76606 15.8287 3.13719C15.8017 3.33448 15.8017 3.53452 15.8287 3.73182C15.8469 3.88247 15.8946 4.0281 15.9689 4.16037C16.0364 4.26971 16.1331 4.35801 16.248 4.41542C16.3748 4.47251 16.5127 4.50072 16.6517 4.49799C16.7881 4.50043 16.9237 4.47668 17.0511 4.42793C17.1564 4.38472 17.2582 4.33351 17.3557 4.27478C17.4461 4.21658 17.5213 4.16726 17.5798 4.12116C17.6187 4.08616 17.6667 4.06295 17.7182 4.05427C17.734 4.05479 17.7492 4.05988 17.762 4.06897C17.7774 4.08248 17.7877 4.10094 17.7911 4.12116C17.7965 4.15099 17.7989 4.18127 17.7985 4.21158C17.7985 4.25305 17.7962 4.29458 17.7911 4.34853V4.34853ZM13.8178 2.78885C13.8753 2.51556 13.8245 2.23062 13.6762 1.99401C13.5986 1.89426 13.4972 1.81562 13.3813 1.76532C13.2654 1.71502 13.1387 1.69467 13.0129 1.70616C12.8657 1.70387 12.7199 1.73509 12.5866 1.7975C12.4635 1.85271 12.3535 1.93359 12.2641 2.03467C12.1694 2.13475 12.0927 2.25052 12.0377 2.3769C11.9805 2.50864 11.9401 2.64706 11.9172 2.78885H13.8178ZM14.4452 2.9789C14.4409 3.06138 14.4052 3.13913 14.3455 3.19624C14.2949 3.2369 14.2321 3.25946 14.1671 3.2603H11.8679C11.8475 3.43476 11.8483 3.611 11.8702 3.78527C11.8879 3.92956 11.9407 4.06734 12.0238 4.18661C12.1059 4.30077 12.2185 4.3895 12.3486 4.44263C12.5154 4.50833 12.6939 4.53897 12.873 4.53259C13.0226 4.53374 13.1719 4.52001 13.3187 4.49159C13.4354 4.46794 13.5508 4.43785 13.6642 4.40152C13.7657 4.36515 13.8442 4.33652 13.9087 4.30932C13.9531 4.28636 14.0015 4.27244 14.0513 4.26826C14.0677 4.26782 14.084 4.27197 14.0983 4.28025C14.1127 4.29027 14.1231 4.30497 14.1279 4.32183C14.1352 4.34666 14.1386 4.37247 14.138 4.39835C14.138 4.43066 14.1343 4.46936 14.1325 4.51546C14.1247 4.54966 14.1214 4.58012 14.1177 4.60317C14.1098 4.62943 14.1052 4.65117 14.0983 4.6696C14.0954 4.68947 14.0876 4.70826 14.0757 4.72444C14.0638 4.74018 14.0502 4.75457 14.0351 4.76734C13.9931 4.79612 13.9477 4.81973 13.9 4.83757C13.8089 4.877 13.7146 4.90863 13.6181 4.93214C13.5024 4.96436 13.3681 4.99069 13.2219 5.01742C13.0657 5.04247 12.9077 5.05485 12.7495 5.05439C12.4959 5.06001 12.2434 5.01856 12.0049 4.93214C11.8071 4.85773 11.6315 4.73442 11.4943 4.5737C11.3571 4.40076 11.2645 4.1967 11.2248 3.97954C11.1737 3.70455 11.166 3.42323 11.2018 3.14584C11.2299 2.86708 11.2989 2.59403 11.4066 2.33538C11.5017 2.10818 11.6379 1.90047 11.8084 1.72276C11.973 1.55843 12.1685 1.42832 12.3837 1.33988C12.6092 1.24802 12.8509 1.20218 13.0945 1.20512C13.3312 1.19773 13.5665 1.24281 13.7837 1.33711C13.9558 1.41895 14.1055 1.54152 14.2196 1.69416C14.3328 1.84836 14.408 2.02717 14.4388 2.21596C14.4738 2.42897 14.4798 2.64572 14.4567 2.86035L14.4452 2.9789V2.9789ZM10.0628 4.88174C10.0608 4.90099 10.054 4.91943 10.0429 4.93531C10.0265 4.9511 10.0071 4.96339 9.98578 4.97135C9.95427 4.98412 9.92124 4.99277 9.88752 4.99713C9.83373 5.00283 9.77969 5.00559 9.7256 5.00543C9.67381 5.00538 9.62204 5.00261 9.57054 4.99713C9.53761 4.99263 9.50539 4.98398 9.47465 4.97135C9.45608 4.96498 9.4404 4.95218 9.43036 4.93531C9.42522 4.9275 9.42183 4.91867 9.42047 4.90942C9.41912 4.90016 9.41983 4.8907 9.42252 4.88174L9.93267 0.134424C9.93598 0.113877 9.94356 0.0942727 9.9549 0.0768183C9.96178 0.0638751 9.97974 0.0533071 10.0103 0.0408363C10.0426 0.0291168 10.0761 0.0212193 10.1103 0.0173096C10.2139 0.00937366 10.318 0.00937366 10.4217 0.0173096C10.4552 0.0214612 10.4882 0.029354 10.5199 0.0408363C10.5367 0.0496967 10.5515 0.0619415 10.5633 0.0768183C10.5734 0.0942695 10.5779 0.114346 10.5763 0.134424L10.0628 4.88174ZM8.23373 4.88174C8.23281 4.90122 8.22588 4.91993 8.21389 4.93531C8.19743 4.95099 8.17798 4.96328 8.15672 4.97135C8.12513 4.98388 8.09213 4.99252 8.05846 4.99713C8.00496 5.00283 7.95118 5.00559 7.89738 5.00543C7.8453 5.00552 7.79328 5.00276 7.74151 4.99713C7.70948 4.99331 7.67822 4.98463 7.64882 4.97135C7.6296 4.96672 7.61295 4.95476 7.60243 4.93802C7.59191 4.92129 7.58835 4.90107 7.59251 4.88174L8.10456 0.134424C8.10605 0.114024 8.11239 0.0942953 8.12302 0.0768183C8.13809 0.0600649 8.15735 0.047652 8.17883 0.0408363C8.21146 0.0285158 8.24557 0.0206023 8.28029 0.0173096C8.33194 0.0119469 8.3839 0.00997129 8.43581 0.0113703C8.48939 0.00993547 8.54299 0.0119109 8.59632 0.0173096C8.62862 0.0215577 8.66035 0.0294516 8.69089 0.0408363C8.70763 0.050965 8.7231 0.0630349 8.73699 0.0768183C8.74479 0.0949669 8.74797 0.114744 8.74624 0.134424L8.23373 4.88174V4.88174ZM6.15923 3.13437C6.17835 2.95593 6.17882 2.77599 6.16064 2.59746C6.14848 2.44311 6.10531 2.29277 6.03375 2.15547C5.96932 2.02734 5.8675 1.9218 5.74174 1.85285C5.58671 1.773 5.41367 1.73456 5.23941 1.74122C5.06737 1.73809 4.89675 1.77306 4.73981 1.84363C4.59758 1.90996 4.47197 2.00718 4.37212 2.12825C4.26847 2.26107 4.18614 2.40926 4.12809 2.56742C4.06619 2.74678 4.02532 2.93272 4.0063 3.12151C3.98447 3.30017 3.98217 3.48063 3.99941 3.65979C4.01254 3.81379 4.05511 3.96386 4.12486 4.10179C4.19472 4.22706 4.29763 4.33071 4.42237 4.40152C4.57824 4.48129 4.75214 4.51928 4.92707 4.51177C5.09738 4.5146 5.26616 4.47937 5.42108 4.40855C5.56516 4.3455 5.69214 4.24901 5.79151 4.1271C5.89801 3.99751 5.9801 3.84963 6.03375 3.6907C6.09668 3.51064 6.13878 3.324 6.15923 3.13437V3.13437ZM6.83868 3.09383C6.81127 3.36401 6.74381 3.6286 6.6385 3.87892C6.54594 4.11015 6.4093 4.3212 6.23621 4.5003C6.06475 4.67707 5.8583 4.81613 5.63005 4.90861C5.37849 5.00877 5.10964 5.05831 4.83891 5.05439C4.58547 5.06093 4.33325 5.01733 4.09672 4.92608C3.90117 4.846 3.7299 4.71622 3.59986 4.54966C3.47168 4.37346 3.38568 4.17024 3.34848 3.95555C3.30136 3.69441 3.29468 3.42758 3.32864 3.16441C3.35626 2.89343 3.42192 2.62769 3.52372 2.37505C3.61506 2.14361 3.75114 1.93245 3.92419 1.75367C4.0955 1.57809 4.30168 1.44027 4.52943 1.3491C4.7823 1.24806 5.05294 1.19909 5.32518 1.20512C5.57787 1.19718 5.82953 1.24106 6.06466 1.33394C6.25939 1.41255 6.43006 1.54089 6.55961 1.70616C6.68961 1.8825 6.77809 2.08591 6.81847 2.30124C6.86222 2.56319 6.86902 2.83 6.83868 3.09383V3.09383ZM2.65747 4.34853C2.65494 4.38681 2.64983 4.42488 2.64216 4.46247C2.63652 4.49127 2.62883 4.5196 2.61912 4.54729C2.61349 4.56793 2.60324 4.58706 2.58917 4.60317C2.5693 4.63077 2.54552 4.65535 2.51859 4.67611C2.46269 4.72267 2.4028 4.76417 2.33957 4.80015C2.2513 4.84902 2.15975 4.89175 2.06558 4.92799C1.95831 4.96719 1.84821 4.99815 1.73624 5.02065C1.61817 5.04266 1.49836 5.05396 1.37826 5.05439C1.15387 5.05909 0.931045 5.01601 0.724588 4.92799C0.544717 4.84919 0.389359 4.72344 0.274784 4.56396C0.15399 4.38837 0.0717538 4.1892 0.0334906 3.97954C-0.00801206 3.71348 -0.0109498 3.44279 0.0247258 3.17588C0.0507108 2.86869 0.124664 2.56749 0.243905 2.28319C0.342453 2.0556 0.482946 1.84862 0.658073 1.673C0.815199 1.51872 1.00369 1.40006 1.21075 1.32512C1.42098 1.24551 1.64428 1.20605 1.86906 1.20881C1.97725 1.2091 2.08519 1.21936 2.19152 1.23937C2.28755 1.25938 2.38181 1.28714 2.47335 1.32241C2.55111 1.35108 2.62454 1.39032 2.69158 1.43906C2.74365 1.46967 2.79143 1.50704 2.83366 1.55023C2.85609 1.57276 2.8745 1.59899 2.88809 1.62773C2.8993 1.64736 2.90652 1.66898 2.90934 1.69139C2.91619 1.71787 2.91884 1.74529 2.91718 1.77259C2.91577 1.80301 2.91208 1.84359 2.90565 1.88837C2.90694 1.96378 2.88644 2.03798 2.8466 2.10202C2.83866 2.1186 2.82652 2.13282 2.81137 2.14325C2.79622 2.15367 2.77858 2.15991 2.76025 2.16141C2.71058 2.15758 2.66426 2.13498 2.63065 2.09821C2.57396 2.04673 2.51384 1.99912 2.45074 1.95572C2.36745 1.89872 2.27823 1.85094 2.18463 1.81318C2.06302 1.76755 1.93385 1.74546 1.80399 1.74808C1.65962 1.74451 1.51641 1.77493 1.38596 1.83688C1.25551 1.89883 1.14145 1.99059 1.05298 2.10473C0.839553 2.40871 0.715401 2.76635 0.694545 3.13719C0.671838 3.33475 0.671838 3.53426 0.694545 3.73182C0.712414 3.88308 0.761444 4.02901 0.838531 4.16037C0.903632 4.27063 0.999705 4.3593 1.1148 4.41542C1.24297 4.47273 1.38224 4.50093 1.52262 4.49799C1.65736 4.4999 1.79124 4.47615 1.91707 4.42793C2.02394 4.38506 2.12725 4.33385 2.22609 4.27478C2.31329 4.21658 2.38757 4.16726 2.44567 4.12116C2.4851 4.0865 2.5333 4.06335 2.58501 4.05427C2.60143 4.05404 2.61748 4.05918 2.63065 4.06897C2.64442 4.08342 2.65372 4.10156 2.65747 4.12116C2.66438 4.15077 2.66703 4.18122 2.66531 4.21158C2.66531 4.25305 2.66247 4.29458 2.65747 4.34853V4.34853Z" fill="var(--fill-0, white)"/>
</svg>
