<svg preserveAspectRatio="none" width="100%" height="100%" overflow="visible" style="display: block;" viewBox="0 0 62 62" fill="none" xmlns="http://www.w3.org/2000/svg">
<g id="BookOpen">
<g id="Vector">
</g>
<path id="Vector_2" d="M31 21.3125C31 19.2571 31.8165 17.2858 33.2699 15.8324C34.7233 14.379 36.6946 13.5625 38.75 13.5625H54.25C54.7639 13.5625 55.2567 13.7666 55.62 14.13C55.9834 14.4933 56.1875 14.9861 56.1875 15.5V46.5C56.1875 47.0139 55.9834 47.5067 55.62 47.87C55.2567 48.2334 54.7639 48.4375 54.25 48.4375H38.75C36.6946 48.4375 34.7233 49.254 33.2699 50.7074C31.8165 52.1608 31 54.1321 31 56.1875" stroke="var(--stroke-0, #191919)" stroke-width="2" stroke-linecap="round" stroke-linejoin="round"/>
<path id="Vector_3" d="M5.8125 46.5C5.8125 47.0139 6.01663 47.5067 6.37998 47.87C6.74333 48.2334 7.23614 48.4375 7.75 48.4375H23.25C25.3054 48.4375 27.2767 49.254 28.7301 50.7074C30.1835 52.1608 31 54.1321 31 56.1875V21.3125C31 19.2571 30.1835 17.2858 28.7301 15.8324C27.2767 14.379 25.3054 13.5625 23.25 13.5625H7.75C7.23614 13.5625 6.74333 13.7666 6.37998 14.13C6.01663 14.4933 5.8125 14.9861 5.8125 15.5V46.5Z" stroke="var(--stroke-0, #191919)" stroke-width="2" stroke-linecap="round" stroke-linejoin="round"/>
</g>
</svg>
