<svg preserveAspectRatio="none" width="100%" height="100%" overflow="visible" style="display: block;" viewBox="0 0 80 80" fill="none" xmlns="http://www.w3.org/2000/svg">
<path id="Vector" fill-rule="evenodd" clip-rule="evenodd" d="M40.0065 0C47.9175 0.00127805 55.6504 2.34835 62.2275 6.74438C68.8046 11.1404 73.9305 17.388 76.957 24.6971C79.9835 32.0063 80.7748 40.0487 79.2306 47.8075C77.6865 55.5664 73.8764 62.6931 68.282 68.2866C62.6877 73.88 55.5603 77.689 47.8013 79.2319C40.0422 80.7748 31.9999 79.9823 24.6912 76.9546C17.3825 73.9269 11.1358 68.8 6.74078 62.2221C2.3458 55.6443 9.44569e-06 47.9111 0 40.0001C0.00353165 29.3914 4.21984 19.2183 11.7219 11.7174C19.224 4.21651 29.3978 0.00183044 40.0065 0Z" fill="var(--fill-0, #191919)"/>
</svg>
