<svg preserveAspectRatio="none" width="100%" height="100%" overflow="visible" style="display: block;" viewBox="0 0 46.5 46.5" fill="none" xmlns="http://www.w3.org/2000/svg">
<g id="BookOpen">
<g id="Vector">
</g>
<path id="Vector_2" d="M23.25 15.9844C23.25 14.4428 23.8624 12.9644 24.9524 11.8743C26.0425 10.7843 27.5209 10.1719 29.0625 10.1719H40.6875C41.0729 10.1719 41.4425 10.325 41.715 10.5975C41.9875 10.87 42.1406 11.2396 42.1406 11.625V34.875C42.1406 35.2604 41.9875 35.63 41.715 35.9025C41.4425 36.175 41.0729 36.3281 40.6875 36.3281H29.0625C27.5209 36.3281 26.0425 36.9405 24.9524 38.0306C23.8624 39.1206 23.25 40.5991 23.25 42.1406" stroke="var(--stroke-0, #1D1D1B)" stroke-width="1.5" stroke-linecap="round" stroke-linejoin="round"/>
<path id="Vector_3" d="M4.35938 34.875C4.35938 35.2604 4.51247 35.63 4.78499 35.9025C5.0575 36.175 5.42711 36.3281 5.8125 36.3281H17.4375C18.9791 36.3281 20.4575 36.9405 21.5476 38.0306C22.6376 39.1206 23.25 40.5991 23.25 42.1406V15.9844C23.25 14.4428 22.6376 12.9644 21.5476 11.8743C20.4575 10.7843 18.9791 10.1719 17.4375 10.1719H5.8125C5.42711 10.1719 5.0575 10.325 4.78499 10.5975C4.51247 10.87 4.35938 11.2396 4.35938 11.625V34.875Z" stroke="var(--stroke-0, #1D1D1B)" stroke-width="1.5" stroke-linecap="round" stroke-linejoin="round"/>
</g>
</svg>
