<svg preserveAspectRatio="none" width="100%" height="100%" overflow="visible" style="display: block;" viewBox="0 0 20.0667 20.0667" fill="none" xmlns="http://www.w3.org/2000/svg">
<g id="globe-americas">
<path id="Vector" d="M6.03333 7.36667V6.66667C5.64673 6.66667 5.33333 6.98007 5.33333 7.36667H6.03333ZM6.03333 8.7L6.52831 9.19497L6.73333 8.98995V8.7H6.03333ZM3.75719 9.09052L3.26222 9.5855H3.26222L3.75719 9.09052ZM8.7 17.3667H9.4V17.0767L9.19497 16.8717L8.7 17.3667ZM7.36667 16.0333H6.66667V16.3233L6.87169 16.5283L7.36667 16.0333ZM7.36667 14.0333H8.06667V13.7434L7.86164 13.5384L7.36667 14.0333ZM6.03333 12.7H5.33333V12.9899L5.53836 13.195L6.03333 12.7ZM6.03333 11.3667V10.6667C5.64673 10.6667 5.33333 10.9801 5.33333 11.3667H6.03333ZM12.7 0.7H12V3.36667H12.7H13.4V0.7H12.7ZM11.3667 4.7V4H10.0333V4.7V5.4H11.3667V4.7ZM7.36667 7.36667V6.66667H6.03333V7.36667V8.06667H7.36667V7.36667ZM6.03333 7.36667H5.33333V8.7H6.03333H6.73333V7.36667H6.03333ZM6.03333 8.7L5.53836 8.20502L5.14783 8.59555L5.64281 9.09052L6.13778 9.5855L6.52831 9.19497L6.03333 8.7ZM3.75719 9.09052L4.25217 8.59555L1.86164 6.20502L1.36667 6.7L0.871692 7.19497L3.26222 9.5855L3.75719 9.09052ZM8.7 6.03333H8C8 6.38311 7.71645 6.66667 7.36667 6.66667V7.36667V8.06667C8.48964 8.06667 9.4 7.15631 9.4 6.03333H8.7ZM10.0333 4.7V4C8.91035 4 8 4.91035 8 6.03333H8.7H9.4C9.4 5.68355 9.68355 5.4 10.0333 5.4V4.7ZM5.64281 9.09052L5.14783 8.59555C4.9005 8.84288 4.4995 8.84288 4.25216 8.59555L3.75719 9.09052L3.26222 9.5855C4.05628 10.3796 5.34372 10.3796 6.13778 9.5855L5.64281 9.09052ZM12.7 3.36667H12C12 3.71645 11.7164 4 11.3667 4V4.7V5.4C12.4896 5.4 13.4 4.48965 13.4 3.36667H12.7ZM8.7 19.3667H9.4V17.3667H8.7H8V19.3667H8.7ZM8.7 17.3667L9.19497 16.8717L7.86164 15.5384L7.36667 16.0333L6.87169 16.5283L8.20502 17.8616L8.7 17.3667ZM7.36667 16.0333H8.06667V14.0333H7.36667H6.66667V16.0333H7.36667ZM7.36667 14.0333L7.86164 13.5384L6.52831 12.205L6.03333 12.7L5.53836 13.195L6.87169 14.5283L7.36667 14.0333ZM6.03333 12.7H6.73333V11.3667H6.03333H5.33333V12.7H6.03333ZM6.03333 11.3667V12.0667H11.3667V11.3667V10.6667H6.03333V11.3667ZM12.7 12.7H12V13.5889H12.7H13.4V12.7H12.7ZM14.4778 15.3667V16.0667H18.0333V15.3667V14.6667H14.4778V15.3667ZM14.0333 14.9222H13.3333C13.3333 15.5543 13.8457 16.0667 14.4778 16.0667V15.3667V14.6667C14.6189 14.6667 14.7333 14.7811 14.7333 14.9222H14.0333ZM13.1444 14.0333V14.7333C13.2488 14.7333 13.3333 14.8179 13.3333 14.9222H14.0333H14.7333C14.7333 14.0447 14.022 13.3333 13.1444 13.3333V14.0333ZM12.7 13.5889H12C12 14.2209 12.5124 14.7333 13.1444 14.7333V14.0333V13.3333C13.2856 13.3333 13.4 13.4477 13.4 13.5889H12.7ZM11.3667 11.3667V12.0667C11.7164 12.0667 12 12.3502 12 12.7H12.7H13.4C13.4 11.577 12.4896 10.6667 11.3667 10.6667V11.3667ZM10.0333 19.3667V18.6667C5.26527 18.6667 1.4 14.8014 1.4 10.0333H0.7H0C0 15.5746 4.49208 20.0667 10.0333 20.0667V19.3667ZM19.3667 10.0333H18.6667C18.6667 14.8014 14.8014 18.6667 10.0333 18.6667V19.3667V20.0667C15.5746 20.0667 20.0667 15.5746 20.0667 10.0333H19.3667ZM10.0333 0.7V1.4C14.8014 1.4 18.6667 5.26527 18.6667 10.0333H19.3667H20.0667C20.0667 4.49208 15.5746 0 10.0333 0V0.7ZM10.0333 0.7V0C4.49208 0 0 4.49208 0 10.0333H0.7H1.4C1.4 5.26527 5.26527 1.4 10.0333 1.4V0.7Z" fill="var(--stroke-0, #1D1D1B)"/>
</g>
</svg>
